<svg width="1440" height="874" viewBox="0 0 1440 874" fill="none" xmlns="http://www.w3.org/2000/svg">
<mask id="mask0_77_659" style="mask-type:alpha" maskUnits="userSpaceOnUse" x="0" y="0" width="1440" height="874">
<rect width="1440" height="874" fill="#D9D9D9"/>
</mask>
<g mask="url(#mask0_77_659)">
<g opacity="0.28">
<g filter="url(#filter0_f_77_659)">
<ellipse cx="368.097" cy="143.746" rx="368.097" ry="143.746" transform="matrix(0.9771 -0.21278 0.230927 0.972971 -61.4697 465.647)" fill="#8349FF"/>
</g>
<g filter="url(#filter1_f_77_659)">
<ellipse cx="303.327" cy="148.935" rx="303.327" ry="148.935" transform="matrix(0.801593 -0.597871 0.612685 0.790328 -121.224 398.701)" fill="#B7EAEA"/>
</g>
<g filter="url(#filter2_f_77_659)">
<ellipse cx="210.934" cy="95.9162" rx="210.934" ry="95.9162" transform="matrix(0.858943 0.512071 -0.495997 0.868324 378.64 191)" fill="#FF5EC6"/>
</g>
</g>
<path opacity="0.1" fill-rule="evenodd" clip-rule="evenodd" d="M1772.9 399.026L1772.9 398.661C1678.99 399.954 1518.68 435.076 1251.24 524.349C1149.35 556.609 952.679 602.223 791.26 610.27C725.399 613.555 665.413 610.583 620.155 597.895C574.94 585.219 544.417 562.836 537.408 527.286C529.825 488.791 549.794 434.869 608.508 361.137C640.926 318.508 655.732 259.609 638.003 206.32C626.609 172.065 601.769 140.126 559.516 116.311C517.263 92.496 457.608 76.808 376.583 75.0631C269.857 72.7667 126.047 94.664 -63.9098 154.052C-178.618 189.631 -287.092 128.683 -392.23 56.5908L-393.143 56.5887C-287.705 128.919 -178.887 190.168 -63.5659 154.399C126.265 95.0492 269.953 73.1653 376.558 75.4614C457.378 77.2031 516.883 92.8444 559.02 116.594C601.161 140.345 625.938 172.211 637.313 206.392C655.013 259.602 640.227 318.414 607.858 360.977C549.09 434.778 529.107 488.768 536.704 527.325C543.742 563.031 574.405 585.513 619.833 598.247C665.218 610.97 725.33 613.953 791.312 610.663C952.848 602.611 1149.64 556.97 1251.58 524.69L1251.59 524.69C1519.05 435.407 1679.21 400.306 1772.89 399.026M1772.83 417.322L1772.83 416.946C1683.96 411.808 1523.16 443.462 1239.85 537.225C1125.17 571.801 928.946 615.678 768.943 623C701.936 626.066 641.286 622.722 595.679 609.592C550.111 596.475 519.537 573.581 512.607 537.544C505.333 499.699 524.116 447.362 578.965 376.644L578.965 376.638C609.612 333.253 623.889 274.077 606.336 220.799C594.976 186.315 570.287 154.3 528.077 130.622C485.858 106.94 426.124 91.6042 344.694 90.4886C241.69 89.0791 103.954 110.425 -76.9929 166.428C-198.569 203.477 -312.606 133.517 -423.096 56.5189L-423.999 56.5168C-313.219 133.743 -198.852 204.016 -76.6588 166.778C104.171 110.81 241.791 89.4749 344.674 90.8842C425.909 91.9966 485.483 107.289 527.581 130.901C569.679 154.517 594.31 186.461 605.65 220.872C623.175 274.075 608.918 333.167 578.32 376.492C523.422 447.276 504.624 499.678 511.912 537.588C518.871 573.776 549.586 596.769 595.362 609.946C641.1 623.111 701.876 626.467 769.005 623.395C929.11 616.068 1125.46 572.167 1240.19 537.575L1240.2 537.57C1523.61 443.775 1684.22 412.153 1772.84 417.32L1772.83 417.322ZM1772.77 437.659L1772.77 437.258C1690.45 424.185 1530.33 451.107 1228.46 550.11C1101.33 586.926 905.572 629.114 746.99 635.768C678.788 638.63 617.465 634.916 571.466 621.373C525.505 607.841 494.825 584.486 487.843 548.05C480.718 510.86 498.268 460.046 549.427 392.156L549.436 392.148C578.284 347.989 592.042 288.534 574.683 235.26C563.377 200.56 538.873 168.48 496.741 144.949C454.603 121.415 394.849 106.434 313.058 105.945C213.791 105.348 82.0453 126.1 -90.0905 178.81C-218.538 217.256 -337.992 137.823 -453.768 56.4501L-454.671 56.4481C-338.6 138.035 -218.846 217.799 -89.7564 179.16C82.2627 126.482 213.892 105.744 313.052 106.34C394.639 106.829 454.233 121.766 496.244 145.231C538.26 168.702 562.707 200.706 573.988 235.332C591.323 288.532 577.584 347.906 548.776 392.008C497.569 459.962 480.004 510.842 487.144 548.094C494.155 584.678 524.97 608.132 571.139 621.724C617.265 635.305 678.714 639.028 747.042 636.161C905.736 629.502 1101.61 587.292 1228.8 550.455L1228.81 550.45C1530.87 451.384 1690.77 424.521 1772.77 437.657L1772.77 437.659ZM1772.7 461.006L1772.7 460.558C1699.05 437.399 1541.58 457.587 1217.07 562.993C1077.86 601.966 882.612 642.527 725.43 648.576C655.937 651.249 593.901 647.176 547.461 633.234C501.064 619.305 470.225 595.513 463.089 558.738C455.995 522.206 472.278 472.868 519.883 407.669L519.893 407.658C546.931 362.709 560.176 302.966 543.025 249.701C531.788 214.797 507.502 182.668 465.496 159.295C423.49 135.917 363.768 121.299 281.674 121.426C186.145 121.572 60.307 141.684 -103.198 191.195C-236.947 230.508 -360.318 143.691 -480 59.4662L-484.382 56.3843L-485.285 56.3822L-480.55 59.7132C-360.683 144.061 -237.133 231.009 -102.869 191.542C60.5294 142.064 186.251 121.965 281.668 121.822C363.558 121.697 423.114 136.269 464.995 159.575C506.885 182.887 531.113 214.942 542.325 249.77C559.452 302.968 546.227 362.631 519.223 407.526C471.57 472.787 455.277 522.188 462.38 558.78C469.545 595.703 500.519 619.591 547.12 633.582C593.686 647.563 655.853 651.647 725.467 648.969C882.756 642.918 1078.12 602.335 1217.39 563.34L1217.41 563.334C1542.25 457.821 1699.45 437.73 1772.69 461.003L1772.7 461.006ZM1772.62 489.2L1772.62 488.627C1710.84 452.049 1559.52 462.121 1205.7 575.87C1054.85 616.91 860.118 655.911 704.321 661.423C633.421 663.932 570.598 659.502 523.664 645.171C476.764 630.852 445.722 606.636 438.339 569.558C431.195 533.692 446.182 485.794 490.35 423.184L490.35 423.168C515.564 377.413 528.309 317.38 511.391 264.117C500.243 229.022 476.215 196.861 434.383 173.653C392.546 150.442 332.915 136.192 250.576 136.924C158.79 137.742 38.778 157.174 -116.286 203.574C-250.48 242.302 -373.599 155.734 -493.093 71.7171C-500.421 66.5632 -507.735 61.4203 -515.039 56.3156L-515.942 56.3135C-508.522 61.5003 -501.087 66.7254 -493.637 71.9641C-373.969 156.107 -250.666 242.804 -115.957 203.924L-115.952 203.924C39.0003 157.556 158.911 138.135 250.59 137.32C332.719 136.59 392.185 150.796 433.896 173.936C475.612 197.078 499.577 229.165 510.706 264.187C527.605 317.381 514.874 377.34 489.7 423.044C445.497 485.713 430.501 533.674 437.654 569.603C445.066 606.823 476.239 631.14 523.338 645.52C570.398 659.889 633.356 664.33 704.378 661.821C860.277 656.307 1055.11 617.287 1206.02 576.23L1206.04 576.222C1560.5 462.268 1711.39 452.402 1772.62 489.203L1772.62 489.2ZM1772.5 527.247L1772.51 526.262C1770.6 523.835 1768.54 521.497 1766.27 519.258C1716.05 469.528 1574.31 467.922 1194.29 588.757C1032.29 631.753 838.143 669.264 683.728 674.314C611.263 676.684 547.558 671.906 500.057 657.189C452.594 642.483 421.292 617.841 413.589 580.479C406.331 545.28 420.002 498.796 460.807 438.694L460.807 438.689L460.816 438.678C484.168 392.1 496.428 331.769 479.758 278.512C468.717 243.235 444.98 211.058 403.371 188.027C361.752 164.991 302.266 151.113 219.731 152.439C131.698 153.854 17.4191 172.574 -129.384 215.953C-264.023 254.096 -386.895 167.777 -506.2 83.968C-519.48 74.6373 -532.717 65.3394 -545.92 56.249L-546.833 56.247C-533.509 65.4196 -520.151 74.8022 -506.754 84.215C-387.275 168.15 -264.224 254.595 -129.074 216.308C17.6269 172.959 131.799 154.25 219.74 152.838C302.056 151.516 361.377 165.351 402.865 188.313C444.358 211.277 468.032 243.38 479.054 278.581C495.704 331.772 483.459 392.033 460.132 438.562C419.288 498.723 405.603 545.268 412.875 580.526C420.606 618.031 452.035 642.768 499.701 657.534C547.334 672.292 611.165 677.085 683.756 674.71C838.278 669.657 1032.53 632.127 1194.6 589.11L1194.62 589.102C1574.17 468.418 1715.63 469.922 1765.64 519.453C1768.15 521.933 1770.42 524.535 1772.49 527.247L1772.5 527.247ZM1771.86 742.659L1771.87 738.168C1768.65 715.224 1769.8 690.234 1770.94 665.42C1773.17 616.88 1775.37 569.024 1744.83 538.42C1694.55 488.048 1555.75 484.472 1182.9 601.639C1010.3 646.472 816.776 682.574 663.726 687.251C589.499 689.518 524.8 684.394 476.649 669.286C428.532 654.188 396.924 629.115 388.834 591.473C381.409 556.951 393.759 511.86 431.273 454.207L431.273 454.199L431.283 454.188C452.757 406.768 464.547 346.133 448.144 292.88C437.23 257.436 413.823 225.257 372.481 202.413C331.129 179.566 271.84 166.056 189.178 167.963C104.878 169.908 -3.74995 187.882 -142.481 228.332C-277.566 265.885 -400.186 179.818 -519.297 96.2162C-538.66 82.6238 -557.931 69.0972 -577.15 56.1764L-578.068 56.1743C-558.728 69.169 -539.331 82.7833 -519.846 96.4632C-400.561 180.191 -277.757 266.384 -142.167 228.687L-142.162 228.687C-3.5277 188.264 104.998 170.301 189.201 168.359C271.65 166.457 330.763 179.92 371.985 202.696C413.211 225.474 436.555 257.576 447.445 292.946C463.828 346.134 452.048 406.704 430.598 454.077C393.05 511.79 380.695 556.938 388.129 591.52C396.249 629.302 427.982 654.474 476.298 669.631C524.575 684.778 589.406 689.919 663.759 687.647C816.911 682.97 1010.54 646.849 1183.22 601.995L1183.24 601.987C1555.61 484.971 1694.13 488.443 1744.21 538.612C1774.66 569.123 1772.46 616.924 1770.23 665.408C1769.02 691.848 1767.8 718.493 1771.85 742.659L1771.86 742.659ZM1771.7 794.609L1771.71 793.397C1752.61 761.946 1752.79 721.133 1752.95 680.798C1753.15 634.045 1753.35 587.939 1723.56 557.716C1673.21 506.63 1537.36 500.997 1171.53 614.516C988.959 661.054 796.108 695.836 644.395 700.23C568.163 702.438 502.332 696.973 453.429 681.47C404.566 665.978 372.6 640.448 364.059 602.522C356.437 568.681 367.453 524.971 401.73 469.714L401.74 469.706L401.74 469.695C421.317 421.414 432.652 360.472 416.545 307.223C405.777 271.624 382.744 239.459 341.712 216.81C300.67 194.154 241.643 181.021 158.891 183.493C78.3301 185.899 -24.7294 203.1 -155.579 240.714C-291.104 277.679 -413.477 191.861 -532.394 108.464C-558.039 90.479 -583.524 72.6085 -608.944 56.1051L-609.877 56.103C-584.325 72.6776 -558.714 90.6384 -532.939 108.711C-413.847 192.231 -291.295 278.176 -155.259 241.069L-155.255 241.069C-24.5023 203.482 78.46 186.295 158.934 183.892C241.457 181.428 300.314 194.516 341.221 217.095C382.137 239.679 405.106 271.769 415.85 307.289C431.938 360.476 420.618 421.358 401.065 469.595C366.749 524.906 355.728 568.674 363.364 602.572C371.939 640.635 404.031 666.261 453.088 681.816C502.112 697.36 568.074 702.839 644.438 700.628C796.238 696.229 989.186 661.433 1171.83 614.877L1171.86 614.869C1537.21 501.496 1672.8 507.024 1722.95 557.911C1752.65 588.044 1752.45 634.101 1752.25 680.799C1752.07 721.631 1751.91 762.954 1771.7 794.611L1771.7 794.609ZM1771.61 823.687L1771.62 822.888C1738.71 790.606 1736.83 743.069 1734.99 696.186C1733.22 651.276 1731.48 606.972 1702.51 577.182C1652.05 525.291 1519.15 517.498 1160.15 627.401C968.317 675.484 776.218 709.043 625.851 713.26C547.331 715.463 480.195 709.662 430.438 693.751C380.716 677.85 348.334 651.842 339.279 613.617C331.423 580.466 341.103 538.128 372.201 485.229L372.201 485.219L372.211 485.205C389.858 436.044 400.752 374.787 384.966 321.541C374.368 285.801 351.743 253.665 311.074 231.218C270.396 208.762 211.674 196.006 128.896 199.024C52.0592 201.826 -45.5192 218.225 -168.652 253.09C-304.627 289.474 -426.753 203.904 -545.482 120.713C-577.679 98.1507 -609.625 75.7667 -641.545 56.0293L-642.501 56.0272C-610.456 75.8222 -578.37 98.3019 -546.036 120.96C-427.133 204.271 -304.833 289.967 -168.357 253.449L-168.352 253.449C-45.3018 218.605 52.1844 202.219 128.934 199.417C211.488 196.407 270.031 209.121 310.573 231.5C351.126 253.882 373.687 285.941 384.266 321.605C400.038 374.791 389.154 435.991 371.521 485.113C340.394 538.066 330.709 580.459 338.579 613.667C347.668 652.029 380.176 678.133 430.088 694.094C479.97 710.044 547.232 715.858 625.884 713.653C776.348 709.434 968.535 675.861 1160.44 627.757L1160.47 627.749C1519 517.991 1651.63 525.674 1701.9 577.366C1730.78 607.069 1732.52 651.329 1734.28 696.187C1736.14 743.414 1738.02 791.306 1771.61 823.682L1771.61 823.687ZM1771.55 846.742L1771.55 846.119C1725.78 814.66 1721.37 762.722 1717.03 711.575C1713.39 668.573 1709.79 626.134 1681.71 596.834C1631.11 544.034 1501.17 533.961 1148.74 640.284C948.472 689.736 757.227 722.176 608.186 726.327C527.028 728.59 458.397 722.464 407.656 706.133C356.949 689.81 324.098 663.282 314.46 624.734C306.349 592.284 314.68 551.312 342.653 500.737L342.663 500.72L342.663 500.709C358.36 450.649 368.832 389.07 353.386 335.83C342.978 299.956 320.81 267.867 280.544 245.628C240.268 223.384 181.914 211 99.1489 214.547C26.0265 217.685 -66.158 233.259 -181.774 265.47C-318.189 301.263 -440.064 215.942 -558.603 132.958C-590.786 110.426 -622.727 88.0695 -654.652 68.3457L-654.653 68.9322C-622.913 88.5683 -591.157 110.802 -559.153 133.205C-440.444 216.309 -318.395 301.753 -181.469 265.825L-181.465 265.825C-65.9358 233.636 26.1614 218.072 99.2011 214.94C181.728 211.401 239.907 223.743 280.042 245.908C320.187 268.081 342.298 300.096 352.682 335.891C368.108 389.074 357.646 450.601 341.964 500.629C313.966 551.256 305.635 592.28 313.756 624.784C323.422 663.466 356.394 690.087 407.295 706.47C458.162 722.845 526.925 728.985 608.209 726.72C757.342 722.564 948.685 690.108 1149.04 640.636L1149.06 640.628C1501.01 534.455 1630.67 544.42 1681.08 597.016C1709.08 626.236 1712.68 668.629 1716.32 711.584C1720.68 763.001 1725.11 815.218 1771.53 846.733L1771.55 846.742ZM1755.26 856.988L1756.16 856.99C1712.19 825.778 1705.59 776.006 1699.1 726.974C1693.67 685.958 1688.31 645.463 1661.2 616.727C1610.41 562.895 1483.48 550.39 1137.37 653.163C929.58 703.788 739.289 735.223 591.564 739.441C507.361 741.844 436.997 735.403 385.125 718.63C333.288 701.868 299.914 674.777 289.636 635.873C281.251 604.131 288.243 564.523 313.119 516.247L313.12 516.233L313.129 516.222C333.145 441.8 345.396 344.117 283.027 284.074C220.619 223.995 83.6014 201.599 -194.853 277.849C-331.718 313.057 -453.34 227.987 -571.691 145.209C-599.488 125.767 -627.105 106.451 -654.699 88.8463L-654.7 89.4439C-627.291 106.953 -599.853 126.143 -572.24 145.456C-453.725 228.355 -331.923 313.547 -194.557 278.21L-194.548 278.21C83.4689 202.076 220.205 224.373 282.424 284.274C344.681 344.211 332.44 441.795 312.44 516.15C287.539 564.475 280.547 604.135 288.942 635.928C299.248 674.964 332.748 702.148 384.775 718.973C436.767 735.784 507.262 742.242 591.602 739.836C739.414 735.617 929.797 704.171 1137.66 653.524L1137.68 653.516C1483.32 550.883 1609.99 563.281 1660.58 616.911C1687.62 645.573 1692.97 686.027 1698.4 727C1704.88 775.966 1711.47 825.67 1755.26 856.985L1755.26 856.988ZM1727.01 856.925L1727.84 856.927C1696.51 826.362 1688.8 784.099 1681.2 742.379C1674.1 703.446 1667.09 664.988 1641.05 636.907C1590.03 581.896 1466.13 566.77 1125.99 666.048C911.738 717.619 722.552 748.17 576.153 752.584C488.402 755.23 416.038 748.487 362.871 731.253C309.734 714.03 275.769 686.319 264.784 647.02C256.115 616.001 261.756 577.762 283.586 531.762L283.586 531.754L283.596 531.735C300.539 456.547 313.258 359.763 253.949 299.972C194.6 240.137 63.2324 217.342 -207.945 290.233C-345.256 324.854 -466.631 240.036 -584.793 157.463C-608.208 141.097 -631.498 124.825 -654.761 109.582L-654.763 110.187C-631.679 125.324 -608.569 141.473 -585.338 157.71C-467.011 240.401 -345.461 325.342 -207.655 290.594L-207.645 290.594C63.0804 217.819 194.172 240.513 253.336 300.162C312.534 359.848 299.835 456.537 282.901 531.662C261.048 577.711 255.405 616.005 264.089 647.075C275.108 686.503 309.194 714.304 362.516 731.591C415.804 748.866 488.309 755.626 576.19 752.977C722.682 748.561 911.95 717.999 1126.28 666.409L1126.3 666.404C1465.96 567.266 1589.6 582.279 1640.43 637.091C1666.4 665.101 1673.41 703.524 1680.49 742.421C1688.09 784.095 1695.79 826.308 1727.01 856.928L1727.01 856.925ZM1701.94 856.869L1702.71 856.87C1679.88 828.477 1671.55 792.938 1663.31 757.795C1654.69 721.058 1646.18 684.752 1621.33 657.445C1570.01 601.066 1449.19 583.086 1114.59 678.93C895.086 731.188 707.209 760.978 562.144 765.736C470.255 768.749 395.555 761.723 340.899 744.003C286.276 726.293 251.658 697.893 239.892 658.155C230.924 627.873 235.227 591.006 254.048 547.266L254.048 547.253L254.057 547.242C267.928 471.289 281.111 375.409 224.866 315.865C168.577 256.274 42.8489 233.08 -221.043 302.615C-358.798 336.645 -479.927 252.076 -597.89 169.711C-616.929 156.417 -635.885 143.182 -654.819 130.511L-654.82 131.122C-636.066 143.681 -617.289 156.792 -598.435 169.958C-480.297 252.441 -359.004 337.131 -220.753 302.976L-220.743 302.976C42.692 233.56 168.138 256.65 224.248 316.049C280.397 375.492 267.224 471.292 253.363 547.188C234.527 590.974 230.225 627.887 239.207 658.219C251.011 698.082 285.746 726.576 340.558 744.346C395.34 762.107 470.171 769.153 562.197 766.132C707.344 761.369 895.308 731.571 1114.9 679.291L1114.92 679.286C1449.02 583.582 1569.58 601.447 1620.71 657.624C1645.51 684.873 1654.02 721.144 1662.63 757.845C1670.86 792.953 1679.19 828.451 1701.96 856.869L1701.94 856.869ZM1678.49 856.816L1679.24 856.818C1662.36 831.6 1653.86 802.273 1645.45 773.219C1635.5 738.828 1625.66 704.825 1602.13 678.438C1550.43 620.465 1432.78 599.324 1103.21 691.81C879.8 744.468 693.479 773.618 549.792 778.881C453.039 782.426 375.626 775.137 319.251 756.903C262.916 738.677 227.586 709.508 214.957 669.278C205.69 639.752 208.648 604.266 224.504 562.774L224.504 562.765L224.509 562.749L224.658 561.68C235.169 487.004 248.072 395.336 199.5 336.104C148.251 273.598 28.6482 247.217 -234.15 314.989C-372.351 348.432 -493.227 264.111 -611.007 181.953C-625.679 171.719 -640.297 161.521 -654.901 151.587L-654.903 152.203C-640.483 162.02 -626.044 172.092 -611.557 182.2C-493.612 264.476 -372.566 348.917 -233.875 315.352L-233.865 315.352C28.4477 247.702 147.769 273.967 198.853 336.269C247.348 395.408 234.45 487.019 223.949 561.648L223.8 562.701C207.929 604.237 204.972 639.77 214.252 669.347C226.915 709.7 262.361 738.962 318.886 757.246C375.382 775.521 452.926 782.827 549.82 779.276C693.59 774.011 879.993 744.848 1103.47 692.173L1103.5 692.168C1432.57 599.82 1549.96 620.843 1601.49 678.616C1624.97 704.949 1634.8 738.925 1644.74 773.283C1653.14 802.304 1661.62 831.598 1678.47 856.816L1678.49 856.816ZM1655.73 856.765L1656.47 856.767C1643.87 835.436 1635.72 811.956 1627.64 788.657C1616.58 756.806 1605.65 725.291 1583.62 700.029C1531.42 640.164 1417.05 615.457 1091.82 704.695C866.083 757.416 681.664 786.049 539.427 791.986C436.916 796.264 356.327 788.752 297.982 769.973C239.666 751.202 203.562 721.164 189.987 680.383C180.418 651.632 182.04 617.54 194.971 578.289L194.971 578.275L194.971 578.262C195.527 572.716 196.112 567.083 196.702 561.385C204.259 488.714 212.936 405.29 168.965 350.406C120.014 289.312 5.93621 263.585 -247.243 327.376C-385.894 360.229 -506.514 276.16 -624.099 194.207C-634.404 187.025 -644.684 179.859 -654.955 172.789L-654.957 173.413C-644.87 180.361 -634.769 187.4 -624.649 194.454C-506.898 276.522 -386.104 360.711 -246.958 327.737L-246.953 327.737C5.73077 264.07 119.537 289.68 168.323 350.568C212.226 405.364 203.554 488.734 196.003 561.359C195.412 567.052 194.822 572.682 194.271 578.225C181.331 617.519 179.709 651.655 189.293 680.453C202.906 721.354 239.126 751.482 297.626 770.313C356.097 789.136 436.823 796.665 539.474 792.382C681.789 786.442 866.282 757.799 1092.1 705.058L1092.12 705.053C1416.84 615.956 1530.95 640.543 1582.98 700.205C1604.97 725.421 1615.9 756.911 1626.94 788.735C1635.02 812.004 1643.15 835.45 1655.72 856.768L1655.73 856.765ZM1632.99 856.714L1633.73 856.716C1624.4 839.785 1617.11 821.892 1609.86 804.109C1598.01 775.056 1586.29 746.289 1565.98 722.425C1513.12 660.283 1402.25 631.45 1080.43 717.577C766.158 790.361 537.231 816.504 385.998 803.344C333.619 798.785 290.565 789.513 256.519 775.831C222.488 762.151 197.451 744.063 181.096 721.87C156.319 688.25 151.47 645.202 165.427 593.793L165.427 593.785L165.428 593.772C166.031 583.637 166.806 573.192 167.59 562.602C172.794 492.392 178.468 415.831 138.497 364.678C91.8738 305.005 -16.7416 279.912 -260.341 339.755C-399.436 372.023 -519.809 288.203 -637.206 206.455C-643.149 202.317 -649.091 198.181 -655.024 194.067L-655.026 194.694C-649.272 198.685 -643.519 202.692 -637.756 206.705C-520.194 288.568 -399.651 372.505 -260.065 340.122L-260.06 340.122C-16.9568 280.397 91.3918 305.375 137.851 364.837C177.754 415.909 172.084 492.42 166.886 562.587C166.106 573.133 165.332 583.535 164.728 593.743C150.751 645.22 155.624 688.333 180.449 722.021C196.853 744.283 221.968 762.431 256.11 776.152C290.243 789.87 333.399 799.167 385.89 803.734C537.249 816.902 766.308 790.754 1080.71 717.941L1080.73 717.935C1402.03 631.946 1512.66 660.656 1565.35 722.596C1585.62 746.418 1597.34 775.166 1609.17 804.197C1616.41 821.948 1623.69 839.808 1633 856.714L1632.99 856.714ZM1609.74 856.662L1610.48 856.664C1603.87 844.497 1597.98 832.01 1592.12 819.577C1579.91 793.688 1567.82 768.028 1549.55 745.958C1495.8 681.007 1388.77 647.23 1069.05 730.457C756.919 802.186 532.985 828.114 382.389 818.045C323.126 814.081 275.225 804.545 237.777 790.031C200.344 775.522 173.358 756.033 155.906 732.17C131.725 699.095 125.855 657.608 135.889 609.301L135.889 609.292L135.889 609.281C136.175 594.871 136.914 579.99 137.659 564.953C141.009 497.445 144.514 426.786 108.127 378.925C63.8552 320.688 -39.3562 296.199 -273.434 352.137C-412.979 383.817 -533.1 300.246 -650.309 218.703L-655.088 215.38L-655.09 216.008L-650.858 218.953C-533.485 300.608 -413.194 384.294 -273.163 352.503L-273.158 352.503C-39.5762 296.681 63.3683 321.055 107.476 379.079C143.804 426.866 140.299 497.476 136.955 564.943C136.21 579.958 135.471 594.818 135.185 609.266C125.136 657.636 131.02 699.183 155.25 732.321C172.755 756.258 199.823 775.804 237.373 790.36C274.908 804.91 322.916 814.471 382.296 818.44C533.013 828.518 757.063 802.582 1069.31 730.828L1069.32 730.823C1388.52 647.729 1495.32 681.38 1548.9 746.129C1567.14 768.163 1579.23 793.809 1591.43 819.682C1597.28 832.082 1603.15 844.533 1609.73 856.667L1609.74 856.662ZM1585.49 856.608L1586.23 856.609C1582.2 849.458 1578.31 842.251 1574.44 835.062C1562.49 812.886 1550.64 790.883 1534.86 771.225C1479.85 702.681 1377.29 662.666 1057.65 743.342C678.03 829.953 433.455 849.3 287.158 822.486C140.974 795.693 92.9527 722.763 106.37 624.802L106.37 624.791L106.37 624.783C106.027 606.339 106.589 587.288 107.152 568.169C109.065 503.49 111 438.036 77.8739 393.132C35.9774 336.338 -61.8929 312.428 -286.502 364.506C-423.207 394.871 -540.72 316.138 -655.132 236.686L-655.134 237.314C-540.736 316.749 -423.204 395.297 -286.241 364.877C-62.1227 312.911 35.4858 336.708 77.2226 393.286C110.291 438.113 108.361 503.526 106.448 568.162C105.885 587.292 105.318 606.354 105.661 624.779C92.2285 722.925 140.376 795.997 286.934 822.859C433.385 849.701 678.131 830.357 1057.94 743.7L1057.95 743.7C1377.04 663.162 1479.37 703.04 1534.23 771.382C1549.99 791.023 1561.84 813.01 1573.78 835.172C1577.64 842.324 1581.5 849.491 1585.51 856.602L1585.49 856.608ZM1559.73 856.55L1560.48 856.552C1559.25 854.557 1558.04 852.563 1556.82 850.571C1546.15 833.069 1535.54 815.677 1522.99 799.489C1466.06 726.062 1369.33 677.471 1046.26 756.221C651.079 845.791 405.985 863.129 261.058 834.904C116.233 806.698 71.4541 732.949 76.8318 640.307L76.8318 640.296C75.5677 618.016 75.8796 594.987 76.1863 572.097C77.0126 510.315 77.8311 449.527 47.7129 407.328C8.21146 351.985 -84.3811 328.625 -299.6 376.893C-431.52 405.545 -545.072 333.985 -655.196 257.956L-655.198 258.584C-545.084 334.583 -431.507 405.968 -299.344 377.259L-299.339 377.259C-84.6253 329.102 7.71006 352.35 47.0568 407.474C77.1218 449.599 76.3082 510.346 75.4772 572.09C75.1705 594.991 74.8586 618.031 76.1227 640.3C70.7397 733.109 115.635 807 260.824 835.274C405.906 863.532 651.166 846.195 1046.55 756.582L1046.56 756.582C1369.06 677.967 1465.58 726.415 1522.36 799.643C1534.9 815.82 1545.51 833.204 1556.17 850.695C1557.36 852.643 1558.56 854.594 1559.74 856.545L1559.73 856.55ZM632.752 854.472L635.661 854.479C744.766 839.589 872.97 816.121 1023.77 782.352C1349.88 709.322 1435.98 775.249 1501.41 856.419L1502.18 856.421C1436.6 774.997 1350.47 708.764 1023.5 781.986C871.479 816.03 742.425 839.603 632.767 854.47L632.752 854.472ZM532.139 854.247L536.486 854.257C666.972 842.479 830.594 815.543 1035.15 769.47L1035.16 769.47C1398.76 684.271 1469.44 766.059 1531.92 856.488L1532.68 856.489C1470.04 765.809 1399.36 683.702 1034.89 769.104C828.155 815.669 663.27 842.675 532.154 854.244L532.139 854.247ZM269.245 853.658L272.227 853.664C259.099 851.862 246.671 849.747 234.939 847.325C91.4732 817.706 49.936 743.135 47.2739 655.817L47.2739 655.808C44.8262 629.815 44.8484 602.969 44.8692 576.588C44.9146 517.735 44.9578 461.196 17.6443 421.497C-19.4379 367.611 -106.82 344.765 -312.712 389.272C-439.795 416.257 -549.389 351.494 -655.259 279.144L-655.261 279.766C-549.401 352.078 -439.777 416.68 -312.441 389.641C-107.055 345.239 -19.9198 367.971 17.0027 421.638C44.2727 461.268 44.2247 517.769 44.1795 576.587C44.1587 602.967 44.1413 629.814 46.5793 655.818C49.2458 743.294 90.8894 818.002 234.705 847.693C245.621 849.946 257.131 851.936 269.254 853.655L269.245 853.658ZM182.1 853.462L183.703 853.466C118.591 835.196 78.4808 806.33 53.7508 771.636C14.5059 716.566 13.9039 646.82 13.3467 581.551C12.8635 525.639 12.4143 473.008 -12.2738 435.642C-46.9124 383.211 -129.157 360.85 -325.805 401.651C-448.055 427.018 -553.686 368.67 -655.342 300.215L-655.344 300.832C-553.692 369.238 -448.032 427.436 -325.558 402.023C-129.421 361.324 -47.4234 383.572 -12.9347 435.777C11.7049 473.077 12.1592 525.675 12.6425 581.55C13.2044 646.857 13.8014 716.641 53.0995 771.781C77.7279 806.339 117.591 835.123 182.1 853.46L182.1 853.462ZM-361.917 56.656C-261.947 123.585 -158.863 176.233 -50.4537 142.014C148.567 79.193 298.396 56.8071 408.704 60.061C489.061 62.4346 548.439 78.4194 590.57 102.294C632.706 126.171 657.6 157.944 668.99 191.886C686.851 245.098 671.526 303.636 637.411 345.453C574.519 422.533 553.424 478.204 561.558 517.404C568.84 552.487 599.525 574.388 644.619 586.639C689.671 598.878 749.103 601.472 813.945 597.961C976.916 589.132 1174.14 541.703 1262.99 511.803C1516.52 426.486 1675.39 388.833 1772.95 382.264L1772.95 381.898C1675.2 388.475 1516.18 426.144 1262.63 511.466C1173.83 541.347 976.737 588.747 813.879 597.568C749.158 601.074 689.856 598.488 644.931 586.285C600.05 574.095 569.511 552.292 562.262 517.364C554.142 478.23 575.223 422.632 638.052 345.624C672.225 303.741 687.574 245.111 669.685 191.816C658.266 157.801 633.314 125.955 591.071 102.017C548.824 78.0765 489.296 62.0477 408.744 59.6682C298.315 56.4086 148.35 78.8078 -50.7975 141.67C-158.604 175.699 -261.329 123.336 -360.99 56.6581L-361.912 56.656L-361.917 56.656Z" fill="black"/>
</g>
<defs>
<filter id="filter0_f_77_659" x="-329.827" y="66.8573" width="1322.44" height="920.655" filterUnits="userSpaceOnUse" color-interpolation-filters="sRGB">
<feFlood flood-opacity="0" result="BackgroundImageFix"/>
<feBlend mode="normal" in="SourceGraphic" in2="BackgroundImageFix" result="shape"/>
<feGaussianBlur stdDeviation="150" result="effect1_foregroundBlur_77_659"/>
</filter>
<filter id="filter1_f_77_659" x="-346.604" y="-181.169" width="1119.55" height="1032.45" filterUnits="userSpaceOnUse" color-interpolation-filters="sRGB">
<feFlood flood-opacity="0" result="BackgroundImageFix"/>
<feBlend mode="normal" in="SourceGraphic" in2="BackgroundImageFix" result="shape"/>
<feGaussianBlur stdDeviation="150" result="effect1_foregroundBlur_77_659"/>
</filter>
<filter id="filter2_f_77_659" x="24.8779" y="-54.1017" width="974.736" height="872.802" filterUnits="userSpaceOnUse" color-interpolation-filters="sRGB">
<feFlood flood-opacity="0" result="BackgroundImageFix"/>
<feBlend mode="normal" in="SourceGraphic" in2="BackgroundImageFix" result="shape"/>
<feGaussianBlur stdDeviation="150" result="effect1_foregroundBlur_77_659"/>
</filter>
</defs>
</svg>
