<svg width="31" height="31" viewBox="0 0 31 31" fill="none" xmlns="http://www.w3.org/2000/svg">
<path d="M27.9921 8.97698C27.1654 6.17406 24.8275 3.83615 22.0246 3.00948C19.8933 2.38948 18.4208 2.44115 17.4004 3.20323C16.1733 4.12031 16.0312 5.77365 16.0312 6.94906V10.1653C16.0312 13.3428 17.4779 14.9574 20.3196 14.9574H24.0267C25.1892 14.9574 26.8554 14.8153 27.7725 13.5882C28.5604 12.5807 28.625 11.1082 27.9921 8.97698Z" fill="#1F1F1F"/>
<path d="M24.4286 17.2567C24.0928 16.8692 23.602 16.6497 23.0982 16.6497H18.4741C16.2007 16.6497 14.3536 14.8026 14.3536 12.5292V7.90507C14.3536 7.40132 14.1341 6.91049 13.7466 6.57466C13.372 6.23882 12.8553 6.08382 12.3645 6.14841C9.32906 6.53591 6.53906 8.20215 4.71781 10.708C2.88364 13.2267 2.21198 16.3009 2.79323 19.3751C3.63281 23.8184 7.18489 27.3705 11.6411 28.2101C12.3516 28.3522 13.062 28.4167 13.7724 28.4167C16.1103 28.4167 18.3707 27.6934 20.2953 26.2855C22.8011 24.4642 24.4674 21.6742 24.8549 18.6388C24.9195 18.1351 24.7645 17.6313 24.4286 17.2567Z" fill="#1F1F1F"/>
</svg>
