<svg xmlns="http://www.w3.org/2000/svg" xmlns:xlink="http://www.w3.org/1999/xlink" viewBox="0 0 24 24"><g><defs><linearGradient id="idss9270393297_1g-1534056718" x1="0" x2="1" y1="0.4975124378109453" y2="0.5024875621890547"><stop offset="0" stop-color="rgb(255,255,255)" stop-opacity="1"></stop><stop offset="1" stop-color="rgb(153,153,153)" stop-opacity="1"></stop></linearGradient></defs><path d="M 18.75 6 L 18.75 15.75 C 18.75 16.164 18.414 16.5 18 16.5 C 17.586 16.5 17.25 16.164 17.25 15.75 L 17.25 7.81 L 6.531 18.531 C 6.238 18.824 5.762 18.824 5.469 18.531 C 5.176 18.238 5.176 17.762 5.469 17.469 L 16.19 6.75 L 8.25 6.75 C 7.836 6.75 7.5 6.414 7.5 6 C 7.5 5.586 7.836 5.25 8.25 5.25 L 18 5.25 C 18.414 5.25 18.75 5.586 18.75 6 Z" fill="url(#idss9270393297_1g-1534056718)"></path></g></svg>