<svg width="411" height="58" viewBox="0 0 411 58" fill="none" xmlns="http://www.w3.org/2000/svg">
<line x1="-4.37114e-08" y1="28.5" x2="331" y2="28.5" stroke="#E4E4E4"/>
<g opacity="0.2">
<path d="M379.281 16.3125V36.25C379.278 39.1333 378.132 41.8977 376.093 43.9365C374.054 45.9753 371.29 47.122 368.406 47.125C367.926 47.125 367.465 46.934 367.125 46.5941C366.785 46.2542 366.594 45.7932 366.594 45.3125C366.594 44.8318 366.785 44.3708 367.125 44.0309C367.465 43.691 367.926 43.5 368.406 43.5C370.329 43.5 372.173 42.7362 373.533 41.3765C374.892 40.0169 375.656 38.1728 375.656 36.25V34.4375H362.062C361.101 34.4375 360.179 34.0556 359.499 33.3758C358.819 32.6959 358.438 31.7739 358.438 30.8125V16.3125C358.438 15.3511 358.819 14.4291 359.499 13.7492C360.179 13.0694 361.101 12.6875 362.062 12.6875H375.656C376.618 12.6875 377.54 13.0694 378.22 13.7492C378.899 14.4291 379.281 15.3511 379.281 16.3125ZM401.938 12.6875H388.344C387.382 12.6875 386.46 13.0694 385.78 13.7492C385.101 14.4291 384.719 15.3511 384.719 16.3125V30.8125C384.719 31.7739 385.101 32.6959 385.78 33.3758C386.46 34.0556 387.382 34.4375 388.344 34.4375H401.938V36.25C401.938 38.1728 401.174 40.0169 399.814 41.3765C398.454 42.7362 396.61 43.5 394.688 43.5C394.207 43.5 393.746 43.691 393.406 44.0309C393.066 44.3708 392.875 44.8318 392.875 45.3125C392.875 45.7932 393.066 46.2542 393.406 46.5941C393.746 46.934 394.207 47.125 394.688 47.125C397.571 47.122 400.335 45.9753 402.374 43.9365C404.413 41.8977 405.56 39.1333 405.562 36.25V16.3125C405.562 15.3511 405.181 14.4291 404.501 13.7492C403.821 13.0694 402.899 12.6875 401.938 12.6875Z" fill="url(#paint0_linear_61_107)"/>
</g>
<defs>
<linearGradient id="paint0_linear_61_107" x1="358.438" y1="29.9062" x2="405.562" y2="29.9062" gradientUnits="userSpaceOnUse">
<stop stop-color="#E97522"/>
<stop offset="1" stop-color="#1EA3B1"/>
</linearGradient>
</defs>
</svg>
