<svg width="324" height="218" viewBox="0 0 324 218" fill="none" xmlns="http://www.w3.org/2000/svg">
<g opacity="0.1" clip-path="url(#clip0_96_789)">
<path d="M315.804 6.08395C312.816 2.18923 309.11 0.214434 304.79 0.214434C298.046 0.214434 290.274 5.0816 282.139 14.2325C280.981 11.001 279.565 8.2632 277.894 6.08395C274.906 2.18923 271.199 0.214434 266.88 0.214434C260.111 0.214434 252.309 5.1165 244.143 14.3272C242.966 10.9661 241.514 8.11859 239.788 5.86952C236.8 1.97479 233.094 0 228.774 0C221.95 0 214.084 4.98186 205.848 14.3272C204.681 11.0558 203.26 8.28315 201.569 6.08395C198.581 2.18923 194.874 0.214434 190.554 0.214434C183.805 0.214434 176.039 5.0816 167.903 14.2325C166.746 11.001 165.329 8.2632 163.658 6.08395C160.67 2.18923 156.964 0.214434 152.644 0.214434C145.875 0.214434 138.073 5.1165 129.907 14.3272C128.73 10.9661 127.279 8.11859 125.553 5.86952C122.565 1.97479 118.858 0 114.539 0C107.715 0 99.8482 4.98186 91.6126 14.3272C90.4454 11.0558 89.0238 8.28315 87.3327 6.08395C84.3448 2.18923 80.6385 0.214434 76.3187 0.214434C69.5696 0.214434 61.8029 5.0816 53.6671 14.2325C52.5098 11.001 51.0931 8.2632 49.4221 6.08395C46.4341 2.18923 42.7279 0.214434 38.408 0.214434C31.639 0.214434 23.8374 5.1165 15.6716 14.3272C14.4944 10.9661 13.0428 8.11859 11.3169 5.86952C8.32892 1.97479 4.62265 0 0.302834 0C-10.0029 0 -22.698 11.36 -35.4379 31.9856C-48.1081 52.4965 -59.3715 79.7646 -67.1432 108.763C-79.6587 155.46 -80.3321 196.911 -68.8143 211.916C-65.8263 215.811 -62.1201 217.786 -57.8002 217.786C-51.0312 217.786 -43.2296 212.884 -35.0638 203.673C-33.8866 207.034 -32.435 209.881 -30.7091 212.13C-27.7211 216.025 -24.0149 218 -19.695 218C-12.9459 218 -5.17925 213.133 2.95657 203.982C4.11385 207.213 5.53051 209.951 7.20158 212.13C10.1895 216.025 13.8958 218 18.2156 218C25.0395 218 32.906 213.018 41.1416 203.673C42.3088 206.944 43.7305 209.717 45.4215 211.916C48.4095 215.811 52.1157 217.786 56.4356 217.786C63.2046 217.786 71.0062 212.884 79.172 203.673C80.3492 207.034 81.8008 209.881 83.5267 212.13C86.5147 216.025 90.2209 218 94.5408 218C101.29 218 109.057 213.133 117.192 203.982C118.35 207.213 119.766 209.951 121.437 212.13C124.425 216.025 128.132 218 132.451 218C139.275 218 147.142 213.018 155.377 203.673C156.545 206.944 157.966 209.717 159.657 211.916C162.645 215.811 166.352 217.786 170.671 217.786C177.44 217.786 185.242 212.884 193.408 203.673C194.585 207.034 196.037 209.881 197.763 212.13C200.75 216.025 204.457 218 208.777 218C215.526 218 223.292 213.133 231.428 203.982C232.585 207.213 234.002 209.951 235.673 212.13C238.661 216.025 242.367 218 246.687 218C256.993 218 269.683 206.64 282.428 186.014C295.103 165.503 306.362 138.235 314.133 109.237C326.649 62.54 327.322 21.0894 315.804 6.08395ZM266.88 1.2118C270.87 1.2118 274.312 3.05694 277.101 6.69235C278.807 8.91648 280.238 11.739 281.395 15.0802C277.34 19.7579 273.195 25.4828 269.049 32.2001C258.679 48.9908 249.251 70.3046 241.913 93.3887C249.002 60.7597 249.91 32.1153 244.507 15.3994C252.404 6.37818 260.131 1.2118 266.885 1.2118H266.88ZM8.68807 108.763C-1.90198 148.279 -18.5926 182.898 -34.6698 201.733C-40.6507 182.534 -38.376 147.705 -28.0653 109.232C-17.4753 69.7161 -0.784607 35.0974 15.2925 16.2621C21.2734 35.4615 18.9988 70.2896 8.68807 108.763ZM9.84534 109.237C20.4553 69.6463 37.1859 34.9728 53.293 16.1624C59.3986 35.2969 57.1638 70.2946 46.7933 108.978C36.1833 148.568 19.4527 183.242 3.34566 202.052C-2.75995 182.918 -0.525215 147.92 9.84534 109.237ZM48.0603 109.022C58.6104 69.6563 75.2163 35.1473 91.2336 16.2671C97.2993 35.4216 95.0496 70.3644 84.699 108.978C74.1488 148.344 57.5429 182.853 41.5257 201.733C35.46 182.578 37.7097 147.636 48.0603 109.022ZM86.1655 109.237C96.7555 69.7211 113.446 35.1024 129.523 16.2671C135.504 35.4665 133.23 70.2946 122.919 108.768C112.329 148.284 95.6382 182.903 79.5611 201.738C73.5801 182.539 75.8548 147.71 86.1655 109.237ZM124.076 109.237C134.686 69.6463 151.417 34.9728 167.524 16.1624C173.629 35.2969 171.395 70.2946 161.024 108.978C150.414 148.568 133.684 183.242 117.576 202.052C111.471 182.918 113.706 147.92 124.076 109.237ZM162.291 109.022C172.841 69.6563 189.447 35.1473 205.464 16.2671C211.53 35.4216 209.28 70.3644 198.93 108.978C188.38 148.344 171.774 182.853 155.756 201.733C149.691 182.578 151.94 147.636 162.291 109.022ZM200.396 109.237C210.986 69.7211 227.677 35.1024 243.754 16.2671C249.735 35.4714 247.46 70.2946 237.15 108.768C226.56 148.284 209.869 182.903 193.792 201.738C187.811 182.539 190.086 147.71 200.396 109.237ZM238.307 109.237C248.917 69.6463 265.648 34.9728 281.755 16.1624C287.86 35.2969 285.625 70.2946 275.255 108.978C264.645 148.568 247.914 183.242 231.807 202.052C225.702 182.918 227.936 147.92 238.307 109.237ZM228.774 0.997369C232.765 0.997369 236.207 2.8425 238.995 6.47791C240.756 8.76688 242.223 11.6942 243.4 15.175C239.369 19.8377 235.254 25.5277 231.134 32.1951C220.339 49.664 210.577 72.035 203.115 96.2013C210.762 62.3555 211.839 32.5142 206.213 15.3894C214.174 6.23356 221.97 0.992383 228.774 0.992383V0.997369ZM190.559 1.2118C194.55 1.2118 197.992 3.05694 200.78 6.69235C202.501 8.93643 203.943 11.7939 205.11 15.18C201.14 19.7978 197.089 25.4229 193.034 31.9856C182.628 48.8312 173.175 70.2298 165.828 93.3987C172.921 60.65 173.779 31.9308 168.272 15.2947C176.138 6.3333 183.83 1.2118 190.559 1.2118ZM152.649 1.2118C156.639 1.2118 160.081 3.05694 162.87 6.69235C164.576 8.91648 166.007 11.739 167.165 15.0802C163.109 19.7579 158.964 25.4828 154.819 32.2001C144.448 48.9908 135.02 70.3046 127.683 93.3887C134.771 60.7597 135.679 32.1153 130.277 15.3994C138.173 6.37818 145.9 1.2118 152.654 1.2118H152.649ZM114.544 0.997369C118.534 0.997369 121.976 2.8425 124.765 6.47791C126.525 8.76688 127.992 11.6942 129.169 15.175C125.139 19.8377 121.023 25.5277 116.903 32.1951C106.108 49.664 96.3465 72.035 88.8841 96.2013C96.5311 62.3555 97.6085 32.5142 91.9818 15.3894C99.943 6.23356 107.74 0.992383 114.544 0.992383V0.997369ZM76.3287 1.2118C80.3193 1.2118 83.7612 3.05694 86.5496 6.69235C88.2705 8.93643 89.7121 11.7939 90.8794 15.18C86.9087 19.7978 82.8583 25.4229 78.8028 31.9856C68.3974 48.8312 58.9446 70.2298 51.5969 93.3987C58.6902 60.65 59.5482 31.9308 54.0412 15.2947C61.9077 6.3333 69.5995 1.2118 76.3287 1.2118ZM38.418 1.2118C42.4086 1.2118 45.8505 3.05694 48.6389 6.69235C50.3449 8.91648 51.7765 11.739 52.9338 15.0802C48.8784 19.7579 44.7331 25.4828 40.5879 32.2001C30.2173 48.9908 20.7896 70.3046 13.4518 93.3887C20.5401 60.7597 21.448 32.1153 16.0457 15.3994C23.9421 6.37818 31.6689 1.2118 38.423 1.2118H38.418ZM-57.7903 216.788C-61.7809 216.788 -65.2228 214.943 -68.0112 211.308C-79.3495 196.537 -78.6062 155.435 -66.1655 109.022C-50.2031 49.4546 -20.3784 0.997369 0.312813 0.997369C4.30341 0.997369 7.74529 2.8425 10.5337 6.47791C12.2946 8.76688 13.7611 11.6942 14.9383 15.175C10.9078 19.8377 6.79253 25.5277 2.67225 32.1951C-9.99789 52.706 -21.2613 79.9741 -29.033 108.973C-39.4784 147.94 -41.6732 183.257 -35.418 202.596C-43.3144 211.617 -51.0412 216.783 -57.7953 216.783L-57.7903 216.788ZM-19.6851 217.003C-23.6757 217.003 -27.1175 215.158 -29.906 211.522C-31.6668 209.233 -33.1334 206.306 -34.3106 202.825C-30.2801 198.162 -26.1648 192.472 -22.0445 185.805C-11.6739 169.014 -2.24616 147.7 5.09155 124.616C-2.04164 157.45 -2.91459 186.254 2.60241 202.92C-5.26405 211.881 -12.9559 217.003 -19.6851 217.003ZM18.2256 217.003C14.235 217.003 10.7931 215.158 8.00468 211.522C6.2987 209.298 4.86707 206.475 3.7098 203.134C7.76524 198.457 11.9105 192.732 16.0557 186.014C26.4612 169.169 35.9139 147.77 43.2616 124.601C36.1833 157.285 35.3153 185.955 40.7824 202.606C32.8212 211.761 25.0246 217.003 18.2206 217.003H18.2256ZM56.4405 216.788C52.45 216.788 49.0081 214.943 46.2196 211.308C44.4987 209.064 43.0571 206.206 41.8898 202.82C45.8605 198.202 49.9109 192.577 53.9664 186.014C64.7609 168.545 74.5229 146.174 81.9853 122.008C74.3733 155.709 73.2709 185.441 78.8178 202.601C70.9214 211.622 63.1946 216.788 56.4405 216.788ZM94.5457 217.003C90.5552 217.003 87.1133 215.158 84.3248 211.522C82.564 209.233 81.0974 206.306 79.9202 202.825C83.9507 198.162 88.066 192.472 92.1863 185.805C102.557 169.014 111.985 147.7 119.322 124.616C112.189 157.45 111.316 186.254 116.833 202.92C108.967 211.881 101.275 217.003 94.5457 217.003ZM132.456 217.003C128.466 217.003 125.024 215.158 122.235 211.522C120.53 209.298 119.098 206.475 117.941 203.134C121.996 198.457 126.141 192.732 130.287 186.014C140.692 169.169 150.145 147.77 157.492 124.601C150.414 157.285 149.546 185.955 155.013 202.606C147.052 211.761 139.255 217.003 132.451 217.003H132.456ZM170.671 216.788C166.681 216.788 163.239 214.943 160.45 211.308C158.729 209.064 157.288 206.206 156.121 202.82C160.091 198.202 164.142 192.577 168.197 186.014C178.992 168.545 188.754 146.174 196.216 122.008C188.604 155.709 187.502 185.441 193.049 202.601C185.152 211.622 177.425 216.788 170.671 216.788ZM208.777 217.003C204.786 217.003 201.344 215.158 198.556 211.522C196.795 209.233 195.328 206.306 194.151 202.825C198.182 198.162 202.297 192.472 206.417 185.805C216.788 169.014 226.215 147.7 233.553 124.616C226.42 157.45 225.547 186.254 231.064 202.92C223.198 211.881 215.506 217.003 208.777 217.003ZM313.166 108.978C297.203 168.54 267.378 217.003 246.687 217.003C242.697 217.003 239.255 215.158 236.466 211.522C234.76 209.298 233.329 206.475 232.171 203.134C236.227 198.457 240.372 192.732 244.517 186.014C257.187 165.503 268.451 138.235 276.223 109.237C286.723 70.0552 288.888 34.5688 282.508 15.2996C290.374 6.33828 298.066 1.21679 304.795 1.21679C308.786 1.21679 312.228 3.06192 315.016 6.69734C326.354 21.4684 325.611 62.57 313.171 108.983L313.166 108.978Z" fill="white"/>
</g>
<defs>
<clipPath id="clip0_96_789">
<rect width="401" height="218" fill="white" transform="translate(-77)"/>
</clipPath>
</defs>
</svg>
