<svg width="32" height="39" viewBox="0 0 32 39" fill="none" xmlns="http://www.w3.org/2000/svg">
<path d="M23.0826 5.44287H26.5994C27.5321 5.44287 28.4266 5.81795 29.0862 6.48559C29.7457 7.15324 30.1162 8.05875 30.1162 9.00294V33.9235C30.1162 34.8676 29.7457 35.7732 29.0862 36.4408C28.4266 37.1085 27.5321 37.4835 26.5994 37.4835H5.49872C4.56601 37.4835 3.6715 37.1085 3.01198 36.4408C2.35245 35.7732 1.98193 34.8676 1.98193 33.9235V9.00294C1.98193 8.05875 2.35245 7.15324 3.01198 6.48559C3.6715 5.81795 4.56601 5.44287 5.49872 5.44287H9.0155" stroke="white" stroke-width="3" stroke-linecap="round" stroke-linejoin="round"/>
<path d="M21.3244 1.88293H10.774C9.80288 1.88293 9.01562 2.67988 9.01562 3.66297V7.22304C9.01562 8.20613 9.80288 9.00308 10.774 9.00308H21.3244C22.2955 9.00308 23.0828 8.20613 23.0828 7.22304V3.66297C23.0828 2.67988 22.2955 1.88293 21.3244 1.88293Z" stroke="white" stroke-width="3" stroke-linecap="round" stroke-linejoin="round"/>
</svg>
