<svg width="31" height="31" viewBox="0 0 31 31" fill="none" xmlns="http://www.w3.org/2000/svg">
<path d="M24.1187 2.58325H21.6645C18.8487 2.58325 17.3633 4.06867 17.3633 6.8845V9.33867C17.3633 12.1545 18.8487 13.6399 21.6645 13.6399H24.1187C26.9345 13.6399 28.4199 12.1545 28.4199 9.33867V6.8845C28.4199 4.06867 26.9345 2.58325 24.1187 2.58325Z" fill="#1F1F1F"/>
<path d="M9.35036 17.3472H6.8962C4.06745 17.3472 2.58203 18.8326 2.58203 21.6484V24.1026C2.58203 26.9313 4.06745 28.4168 6.88328 28.4168H9.33745C12.1533 28.4168 13.6387 26.9313 13.6387 24.1155V21.6613C13.6516 18.8326 12.1662 17.3472 9.35036 17.3472Z" fill="#1F1F1F"/>
<path d="M8.12328 13.6658C11.1836 13.6658 13.6645 11.1848 13.6645 8.1245C13.6645 5.06415 11.1836 2.58325 8.12328 2.58325C5.06293 2.58325 2.58203 5.06415 2.58203 8.1245C2.58203 11.1848 5.06293 13.6658 8.12328 13.6658Z" fill="#1F1F1F"/>
<path d="M22.8772 28.4167C25.9375 28.4167 28.4184 25.9358 28.4184 22.8755C28.4184 19.8151 25.9375 17.3342 22.8772 17.3342C19.8168 17.3342 17.3359 19.8151 17.3359 22.8755C17.3359 25.9358 19.8168 28.4167 22.8772 28.4167Z" fill="#1F1F1F"/>
</svg>
