<svg width="31" height="31" viewBox="0 0 31 31" fill="none" xmlns="http://www.w3.org/2000/svg">
<path d="M21.957 12.9166H24.5404C27.1237 12.9166 28.4154 11.6249 28.4154 9.04159V6.45825C28.4154 3.87492 27.1237 2.58325 24.5404 2.58325H21.957C19.3737 2.58325 18.082 3.87492 18.082 6.45825V9.04159C18.082 11.6249 19.3737 12.9166 21.957 12.9166Z" stroke="#757575" stroke-width="1.5" stroke-miterlimit="10" stroke-linecap="round" stroke-linejoin="round"/>
<path d="M6.45703 28.4166H9.04036C11.6237 28.4166 12.9154 27.1249 12.9154 24.5416V21.9583C12.9154 19.3749 11.6237 18.0833 9.04036 18.0833H6.45703C3.8737 18.0833 2.58203 19.3749 2.58203 21.9583V24.5416C2.58203 27.1249 3.8737 28.4166 6.45703 28.4166Z" stroke="#757575" stroke-width="1.5" stroke-miterlimit="10" stroke-linecap="round" stroke-linejoin="round"/>
<path d="M7.7487 12.9166C10.6022 12.9166 12.9154 10.6034 12.9154 7.74992C12.9154 4.89645 10.6022 2.58325 7.7487 2.58325C4.89523 2.58325 2.58203 4.89645 2.58203 7.74992C2.58203 10.6034 4.89523 12.9166 7.7487 12.9166Z" stroke="#757575" stroke-width="1.5" stroke-miterlimit="10" stroke-linecap="round" stroke-linejoin="round"/>
<path d="M23.2487 28.4166C26.1022 28.4166 28.4154 26.1034 28.4154 23.2499C28.4154 20.3964 26.1022 18.0833 23.2487 18.0833C20.3952 18.0833 18.082 20.3964 18.082 23.2499C18.082 26.1034 20.3952 28.4166 23.2487 28.4166Z" stroke="#757575" stroke-width="1.5" stroke-miterlimit="10" stroke-linecap="round" stroke-linejoin="round"/>
</svg>
