<svg width="31" height="31" viewBox="0 0 31 31" fill="none" xmlns="http://www.w3.org/2000/svg">
<path d="M21.9519 5.16675H9.03526C4.08818 5.16675 2.70609 6.35508 2.58984 10.9792C5.08276 10.9792 7.09776 13.0072 7.09776 15.5001C7.09776 17.993 5.08276 20.008 2.58984 20.0209C2.70609 24.6451 4.08818 25.8334 9.03526 25.8334H21.9519C27.1186 25.8334 28.4103 24.5417 28.4103 19.3751V11.6251C28.4103 6.45841 27.1186 5.16675 21.9519 5.16675Z" stroke="#1F1F1F" stroke-width="1.5" stroke-linecap="round" stroke-linejoin="round"/>
<path d="M11.6133 5.16675V9.68758" stroke="#1F1F1F" stroke-width="1.5" stroke-linecap="round" stroke-linejoin="round"/>
<path d="M11.6133 21.3125V25.8333" stroke="#1F1F1F" stroke-width="1.5" stroke-linecap="round" stroke-linejoin="round"/>
<path d="M19.4065 12.0513L20.2074 13.6659C20.2849 13.8209 20.4399 13.9371 20.6078 13.963L22.3903 14.2213C22.8295 14.2859 23.0103 14.8284 22.6874 15.1384L21.3957 16.3913C21.2665 16.5075 21.2149 16.6884 21.2407 16.8692L21.5507 18.6388C21.6282 19.078 21.1632 19.4138 20.7757 19.2071L19.187 18.3675C19.032 18.29 18.8382 18.29 18.6832 18.3675L17.0945 19.2071C16.694 19.4138 16.242 19.078 16.3195 18.6388L16.6295 16.8692C16.6553 16.6884 16.6036 16.5205 16.4745 16.3913L15.1957 15.1384C14.8728 14.8284 15.0536 14.2859 15.4928 14.2213L17.2753 13.963C17.4561 13.9371 17.5982 13.8338 17.6757 13.6659L18.4636 12.0513C18.6445 11.6509 19.2128 11.6509 19.4065 12.0513Z" stroke="#1F1F1F" stroke-width="1.5" stroke-linecap="round" stroke-linejoin="round"/>
</svg>
