<svg width="46" height="46" viewBox="0 0 46 46" fill="none" xmlns="http://www.w3.org/2000/svg">
<circle cx="23" cy="23" r="22.5" fill="#18292B" stroke="#2B3B3D"/>
<path d="M23 12.5C17.201 12.5 12.5 17.201 12.5 23C12.5 27.9245 15.89 32.0562 20.4635 33.191V26.2085H18.2983V23H20.4635V21.6177C20.4635 18.044 22.0805 16.3872 25.5897 16.3872C26.255 16.3872 27.4025 16.5177 27.872 16.6482V19.5567C27.6245 19.5305 27.194 19.5177 26.6593 19.5177C24.9373 19.5177 24.272 20.1702 24.272 21.8652V23H27.7017L27.1122 26.2085H24.272V33.4227C29.471 32.795 33.5 28.3677 33.5 23C33.5 17.201 28.799 12.5 23 12.5Z" fill="white"/>
</svg>
