<svg width="21" height="15" viewBox="0 0 21 15" fill="none" xmlns="http://www.w3.org/2000/svg">
<path d="M0.34375 0.46875V8.28125H20.6562V6.71875H11.2812V5.15625H20.6562V3.59375H11.2812V2.03125H20.6562V0.46875H0.34375ZM1.90625 1.25C2.11345 1.25 2.31216 1.33231 2.45868 1.47882C2.60519 1.62534 2.6875 1.82405 2.6875 2.03125C2.6875 2.23845 2.60519 2.43716 2.45868 2.58368C2.31216 2.73019 2.11345 2.8125 1.90625 2.8125C1.69905 2.8125 1.50034 2.73019 1.35382 2.58368C1.20731 2.43716 1.125 2.23845 1.125 2.03125C1.125 1.82405 1.20731 1.62534 1.35382 1.47882C1.50034 1.33231 1.69905 1.25 1.90625 1.25ZM5.03125 1.25C5.23845 1.25 5.43716 1.33231 5.58368 1.47882C5.73019 1.62534 5.8125 1.82405 5.8125 2.03125C5.8125 2.23845 5.73019 2.43716 5.58368 2.58368C5.43716 2.73019 5.23845 2.8125 5.03125 2.8125C4.82405 2.8125 4.62534 2.73019 4.47882 2.58368C4.33231 2.43716 4.25 2.23845 4.25 2.03125C4.25 1.82405 4.33231 1.62534 4.47882 1.47882C4.62534 1.33231 4.82405 1.25 5.03125 1.25ZM8.15625 1.25C8.36345 1.25 8.56216 1.33231 8.70868 1.47882C8.85519 1.62534 8.9375 1.82405 8.9375 2.03125C8.9375 2.23845 8.85519 2.43716 8.70868 2.58368C8.56216 2.73019 8.36345 2.8125 8.15625 2.8125C7.94905 2.8125 7.75034 2.73019 7.60382 2.58368C7.45731 2.43716 7.375 2.23845 7.375 2.03125C7.375 1.82405 7.45731 1.62534 7.60382 1.47882C7.75034 1.33231 7.94905 1.25 8.15625 1.25ZM3.46875 3.59375C3.67595 3.59375 3.87466 3.67606 4.02118 3.82257C4.16769 3.96909 4.25 4.1678 4.25 4.375C4.25 4.5822 4.16769 4.78091 4.02118 4.92743C3.87466 5.07394 3.67595 5.15625 3.46875 5.15625C3.26155 5.15625 3.06284 5.07394 2.91632 4.92743C2.76981 4.78091 2.6875 4.5822 2.6875 4.375C2.6875 4.1678 2.76981 3.96909 2.91632 3.82257C3.06284 3.67606 3.26155 3.59375 3.46875 3.59375ZM6.59375 3.59375C6.80095 3.59375 6.99966 3.67606 7.14618 3.82257C7.29269 3.96909 7.375 4.1678 7.375 4.375C7.375 4.5822 7.29269 4.78091 7.14618 4.92743C6.99966 5.07394 6.80095 5.15625 6.59375 5.15625C6.38655 5.15625 6.18784 5.07394 6.04132 4.92743C5.89481 4.78091 5.8125 4.5822 5.8125 4.375C5.8125 4.1678 5.89481 3.96909 6.04132 3.82257C6.18784 3.67606 6.38655 3.59375 6.59375 3.59375ZM9.71875 3.59375C9.92595 3.59375 10.1247 3.67606 10.2712 3.82257C10.4177 3.96909 10.5 4.1678 10.5 4.375C10.5 4.5822 10.4177 4.78091 10.2712 4.92743C10.1247 5.07394 9.92595 5.15625 9.71875 5.15625C9.51155 5.15625 9.31284 5.07394 9.16632 4.92743C9.01981 4.78091 8.9375 4.5822 8.9375 4.375C8.9375 4.1678 9.01981 3.96909 9.16632 3.82257C9.31284 3.67606 9.51155 3.59375 9.71875 3.59375ZM1.90625 5.9375C2.11345 5.9375 2.31216 6.01981 2.45868 6.16632C2.60519 6.31284 2.6875 6.51155 2.6875 6.71875C2.6875 6.92595 2.60519 7.12466 2.45868 7.27118C2.31216 7.41769 2.11345 7.5 1.90625 7.5C1.69905 7.5 1.50034 7.41769 1.35382 7.27118C1.20731 7.12466 1.125 6.92595 1.125 6.71875C1.125 6.51155 1.20731 6.31284 1.35382 6.16632C1.50034 6.01981 1.69905 5.9375 1.90625 5.9375ZM5.03125 5.9375C5.23845 5.9375 5.43716 6.01981 5.58368 6.16632C5.73019 6.31284 5.8125 6.51155 5.8125 6.71875C5.8125 6.92595 5.73019 7.12466 5.58368 7.27118C5.43716 7.41769 5.23845 7.5 5.03125 7.5C4.82405 7.5 4.62534 7.41769 4.47882 7.27118C4.33231 7.12466 4.25 6.92595 4.25 6.71875C4.25 6.51155 4.33231 6.31284 4.47882 6.16632C4.62534 6.01981 4.82405 5.9375 5.03125 5.9375ZM8.15625 5.9375C8.36345 5.9375 8.56216 6.01981 8.70868 6.16632C8.85519 6.31284 8.9375 6.51155 8.9375 6.71875C8.9375 6.92595 8.85519 7.12466 8.70868 7.27118C8.56216 7.41769 8.36345 7.5 8.15625 7.5C7.94905 7.5 7.75034 7.41769 7.60382 7.27118C7.45731 7.12466 7.375 6.92595 7.375 6.71875C7.375 6.51155 7.45731 6.31284 7.60382 6.16632C7.75034 6.01981 7.94905 5.9375 8.15625 5.9375ZM0.34375 9.84375V11.4062H20.6562V9.84375H0.34375ZM0.34375 12.9688V14.5312H20.6562V12.9688H0.34375Z" fill="#699BF7"/>
</svg>
