<svg width="24" height="24" viewBox="0 0 24 24" fill="none" xmlns="http://www.w3.org/2000/svg">
<path d="M15.3083 20.9584H8.64168C5.79168 20.9584 4.68335 19.85 4.68335 17V10.3334C4.68335 9.99171 4.96668 9.70837 5.30835 9.70837H18.6417C18.9833 9.70837 19.2667 9.99171 19.2667 10.3334V17C19.2667 19.85 18.1583 20.9584 15.3083 20.9584ZM5.93335 10.9584V17C5.93335 19.15 6.49168 19.7084 8.64168 19.7084H15.3083C17.4583 19.7084 18.0167 19.15 18.0167 17V10.9584H5.93335Z" fill="#292D32"/>
<path d="M18.25 10.9583H5.75004C4.29171 10.9583 3.45837 10.125 3.45837 8.66663V7.83329C3.45837 6.37496 4.29171 5.54163 5.75004 5.54163H18.25C19.6667 5.54163 20.5417 6.41663 20.5417 7.83329V8.66663C20.5417 10.0833 19.6667 10.9583 18.25 10.9583ZM5.75004 6.79163C4.99171 6.79163 4.70837 7.07496 4.70837 7.83329V8.66663C4.70837 9.42496 4.99171 9.70829 5.75004 9.70829H18.25C18.9834 9.70829 19.2917 9.39996 19.2917 8.66663V7.83329C19.2917 7.09996 18.9834 6.79163 18.25 6.79163H5.75004Z" fill="#292D32"/>
<path d="M11.6999 6.79173H7.09992C6.92492 6.79173 6.75825 6.71673 6.64158 6.59173C6.13325 6.0334 6.14992 5.17507 6.68325 4.64173L7.86658 3.4584C8.41658 2.9084 9.32492 2.9084 9.87492 3.4584L12.1416 5.72506C12.3166 5.90006 12.3749 6.17506 12.2749 6.4084C12.1832 6.64173 11.9582 6.79173 11.6999 6.79173ZM7.55825 5.54173H10.1999L8.99158 4.34173C8.92492 4.27507 8.81658 4.27507 8.74992 4.34173L7.56658 5.52507C7.56658 5.5334 7.55825 5.5334 7.55825 5.54173Z" fill="#292D32"/>
<path d="M16.8916 6.79173H12.2916C12.0416 6.79173 11.8083 6.64173 11.7166 6.4084C11.6166 6.17506 11.6749 5.9084 11.8499 5.72506L14.1166 3.4584C14.6666 2.9084 15.575 2.9084 16.125 3.4584L17.3083 4.64173C17.8416 5.17507 17.8666 6.0334 17.35 6.59173C17.2333 6.71673 17.0666 6.79173 16.8916 6.79173ZM13.8083 5.54173H16.45C16.4416 5.5334 16.4416 5.5334 16.4333 5.52507L15.2499 4.34173C15.1833 4.27507 15.0749 4.27507 15.0083 4.34173L13.8083 5.54173Z" fill="#292D32"/>
<path d="M10.2833 16.0834C10.05 16.0834 9.80828 16.025 9.59162 15.9084C9.11662 15.65 8.82495 15.1584 8.82495 14.625V10.3334C8.82495 9.99171 9.10828 9.70837 9.44995 9.70837H14.4833C14.825 9.70837 15.1083 9.99171 15.1083 10.3334V14.6084C15.1083 15.15 14.8166 15.6417 14.3416 15.8917C13.8666 16.15 13.2916 16.1167 12.8416 15.8167L12.1 15.3167C12.0333 15.2667 11.9416 15.2667 11.8666 15.3167L11.0833 15.8334C10.8416 16 10.5583 16.0834 10.2833 16.0834ZM10.075 10.9584V14.6167C10.075 14.725 10.1416 14.775 10.1833 14.8C10.225 14.825 10.3083 14.85 10.4 14.7917L11.1833 14.275C11.675 13.95 12.3083 13.95 12.7916 14.275L13.5333 14.775C13.625 14.8334 13.7083 14.8084 13.75 14.7834C13.7916 14.7584 13.8583 14.7084 13.8583 14.6V10.95H10.075V10.9584Z" fill="#292D32"/>
</svg>
