<svg width="36" height="36" viewBox="0 0 36 36" fill="none" xmlns="http://www.w3.org/2000/svg">
<rect width="36" height="36" rx="18" fill="white"/>
<path d="M21.7013 10.5833C20.193 10.5833 18.843 11.3166 18.0013 12.4416C17.1596 11.3166 15.8096 10.5833 14.3013 10.5833C11.743 10.5833 9.66797 12.6666 9.66797 15.2416C9.66797 16.2333 9.8263 17.1499 10.1013 17.9999C11.418 22.1666 15.4763 24.6583 17.4846 25.3416C17.768 25.4416 18.2346 25.4416 18.518 25.3416C20.5263 24.6583 24.5846 22.1666 25.9013 17.9999C26.1763 17.1499 26.3346 16.2333 26.3346 15.2416C26.3346 12.6666 24.2596 10.5833 21.7013 10.5833Z" fill="#FF5347"/>
</svg>
