<svg width="45" height="45" viewBox="0 0 45 45" fill="none" xmlns="http://www.w3.org/2000/svg">
<rect x="0.580017" y="0.390137" width="44" height="44" rx="3" fill="white"/>
<path d="M13.0476 16.1333H17.566V33H13.0476V16.1333ZM26.8407 16.1333C26.0004 16.1333 25.3464 16.2891 24.8787 16.6005C24.411 16.912 24.0028 17.2035 23.654 17.475V16.1333H19.1118V33H23.654V22.3865C23.654 22.3865 23.7293 22.0351 23.8799 21.3323C24.0305 20.6295 24.74 20.2781 26.0083 20.2781C26.7693 20.2781 27.3282 20.4738 27.6849 20.8651C28.0416 21.2564 28.22 21.7635 28.22 22.3865V33H33V22.5302C33 21.0927 32.7543 19.9507 32.2628 19.1042C31.7713 18.2576 31.1887 17.6148 30.5149 17.1755C29.8411 16.7363 29.1554 16.4528 28.4578 16.325C27.7602 16.1972 27.2212 16.1333 26.8407 16.1333ZM13 12.3C13 12.9389 13.222 13.4819 13.6659 13.9292C14.1098 14.3764 14.6488 14.6 15.283 14.6C15.9172 14.6 16.4562 14.3764 16.9001 13.9292C17.344 13.4819 17.566 12.9389 17.566 12.3C17.566 11.6611 17.344 11.1181 16.9001 10.6708C16.4562 10.2236 15.9172 10 15.283 10C14.6488 10 14.1098 10.2236 13.6659 10.6708C13.222 11.1181 13 11.6611 13 12.3Z" fill="black"/>
</svg>
