<svg width="46" height="46" viewBox="0 0 46 46" fill="none" xmlns="http://www.w3.org/2000/svg">
<circle cx="23" cy="23" r="22.5" fill="#18292B" stroke="#2B3B3D"/>
<path fill-rule="evenodd" clip-rule="evenodd" d="M30.5833 13.25H15.4167C14.2205 13.25 13.25 14.2197 13.25 15.4167V30.5833C13.25 31.7795 14.2197 32.75 15.4167 32.75H30.5833C31.7795 32.75 32.75 31.7803 32.75 30.5833V15.4167C32.75 14.2205 31.7803 13.25 30.5833 13.25ZM19.1458 30.0417H16.238V20.6525H19.1458V30.0417ZM17.678 19.4233C16.7278 19.4233 15.9583 18.6477 15.9583 17.6907C15.9583 16.7337 16.7278 15.9583 17.678 15.9583C18.6283 15.9583 19.397 16.7337 19.397 17.6907C19.397 18.6477 18.6275 19.4233 17.678 19.4233ZM30.0417 30.0417H27.1483V25.1135C27.1483 23.762 26.6345 23.0068 25.565 23.0068C24.4017 23.0068 23.7935 23.7928 23.7935 25.1135V30.0417H21.005V20.6525H23.7935V21.917C23.7935 21.917 24.632 20.3653 26.6248 20.3653C28.6175 20.3653 30.0417 21.581 30.0417 24.0965V30.0417Z" fill="white"/>
</svg>
