<svg width="115" height="65" viewBox="0 0 115 65" fill="none" xmlns="http://www.w3.org/2000/svg">
<ellipse cx="28.98" cy="29" rx="28.98" ry="29" fill="url(#paint0_linear_1_26)"/>
<path d="M37.88 55V21.4H57.728V27.256H43.736V34.072H55.424V39.928H43.736V55H37.88Z" fill="#05041C"/>
<path d="M59.1631 50.56V43H62.0911V49.792C62.0911 50.264 62.2071 50.696 62.4391 51.088C62.6711 51.472 62.9791 51.78 63.3631 52.012C63.7551 52.236 64.1831 52.348 64.6471 52.348C65.1271 52.348 65.5591 52.236 65.9431 52.012C66.3271 51.78 66.6351 51.472 66.8671 51.088C67.0991 50.696 67.2151 50.264 67.2151 49.792V43H70.1431L70.1551 55H67.2271L67.2151 53.908C66.7991 54.34 66.3071 54.684 65.7391 54.94C65.1711 55.188 64.5631 55.312 63.9151 55.312C63.0431 55.312 62.2471 55.1 61.5271 54.676C60.8071 54.244 60.2311 53.672 59.7991 52.96C59.3751 52.24 59.1631 51.44 59.1631 50.56ZM72.6275 55V37H75.5555V55H72.6275ZM78.44 55V37H81.368V55H78.44ZM89.345 55.312C88.241 55.312 87.233 55.028 86.321 54.46C85.417 53.892 84.693 53.128 84.149 52.168C83.613 51.208 83.345 50.148 83.345 48.988C83.345 48.116 83.501 47.3 83.813 46.54C84.125 45.772 84.553 45.1 85.097 44.524C85.649 43.94 86.289 43.484 87.017 43.156C87.745 42.828 88.521 42.664 89.345 42.664C90.281 42.664 91.137 42.864 91.913 43.264C92.697 43.656 93.361 44.196 93.905 44.884C94.449 45.572 94.845 46.356 95.093 47.236C95.341 48.116 95.397 49.036 95.261 49.996H86.489C86.601 50.444 86.785 50.848 87.041 51.208C87.297 51.56 87.621 51.844 88.013 52.06C88.405 52.268 88.849 52.376 89.345 52.384C89.857 52.392 90.321 52.272 90.737 52.024C91.161 51.768 91.513 51.424 91.793 50.992L94.781 51.688C94.293 52.752 93.565 53.624 92.597 54.304C91.629 54.976 90.545 55.312 89.345 55.312ZM86.393 47.8H92.297C92.209 47.32 92.021 46.888 91.733 46.504C91.453 46.112 91.105 45.8 90.689 45.568C90.273 45.336 89.825 45.22 89.345 45.22C88.865 45.22 88.421 45.336 88.013 45.568C87.605 45.792 87.257 46.1 86.969 46.492C86.689 46.876 86.497 47.312 86.393 47.8ZM103.645 45.928H101.317V55H98.3894V45.928H96.6134V43H98.3894V39.232H101.317V43H103.645V45.928Z" fill="white"/>
<defs>
<linearGradient id="paint0_linear_1_26" x1="28.98" y1="0" x2="28.98" y2="58" gradientUnits="userSpaceOnUse">
<stop stop-color="#3461FF"/>
<stop offset="1" stop-color="#8454EB"/>
</linearGradient>
</defs>
</svg>
