<svg width="31" height="31" viewBox="0 0 31 31" fill="none" xmlns="http://www.w3.org/2000/svg">
<path d="M21.957 11.6249C21.957 16.6237 17.617 20.6666 12.2695 20.6666L11.0683 22.1132L10.3579 22.9658C9.75079 23.6891 8.58828 23.5341 8.18786 22.6687L6.45703 18.8582C4.1062 17.2049 2.58203 14.5828 2.58203 11.6249C2.58203 6.62617 6.92203 2.58325 12.2695 2.58325C16.1704 2.58325 19.5416 4.74034 21.0529 7.84034C21.6341 8.98993 21.957 10.2687 21.957 11.6249Z" stroke="#1F1F1F" stroke-width="1.5" stroke-linecap="round" stroke-linejoin="round"/>
<path d="M28.4174 16.611C28.4174 19.5689 26.8932 22.191 24.5424 23.8443L22.8116 27.6547C22.4111 28.5201 21.2486 28.6881 20.6415 27.9518L18.7299 25.6526C15.6041 25.6526 12.8141 24.2706 11.0703 22.1135L12.2716 20.6668C17.6191 20.6668 21.9591 16.6239 21.9591 11.6252C21.9591 10.2689 21.6361 8.99016 21.0549 7.84058C25.2786 8.80933 28.4174 12.3743 28.4174 16.611Z" stroke="#1F1F1F" stroke-width="1.5" stroke-linecap="round" stroke-linejoin="round"/>
<path d="M9.04297 11.625H15.5013" stroke="#1F1F1F" stroke-width="1.5" stroke-linecap="round" stroke-linejoin="round"/>
</svg>
