<svg width="35" height="35" viewBox="0 0 35 35" fill="none" xmlns="http://www.w3.org/2000/svg">
<path d="M27.0938 9.80402H29.024C28.7543 9.42081 28.4704 9.066 28.1724 8.71118L27.0938 9.80402Z" fill="#1F1F1F"/>
<path d="M26.6827 7.20678C26.3279 6.90874 25.973 6.62489 25.5898 6.35522V8.28543L26.6827 7.20678Z" fill="#1F1F1F"/>
<path d="M28.188 8.71113L32.3749 4.52429C32.7864 4.11271 32.7864 3.43146 32.3749 3.01987C31.9633 2.60828 31.282 2.60828 30.8704 3.01987L26.6836 7.20671C27.2229 7.67507 27.7197 8.186 28.188 8.71113Z" fill="#1F1F1F"/>
<path d="M25.5913 5.1914C25.5913 4.6095 25.1087 4.12695 24.5268 4.12695C23.9591 4.12695 23.5049 4.58112 23.4766 5.13463C24.2146 5.48945 24.9242 5.88684 25.5913 6.3552V5.1914Z" fill="#1F1F1F"/>
<path d="M31.2659 10.8684C31.2659 10.2865 30.7833 9.80396 30.2014 9.80396H29.0234C29.4918 10.471 29.9034 11.1806 30.244 11.9187C30.8117 11.8903 31.2659 11.4361 31.2659 10.8684Z" fill="#1F1F1F"/>
<path d="M18.4922 21.8678H18.918C19.4715 21.8678 19.9115 21.3711 19.9115 20.7608C19.9115 19.9944 19.6986 19.8809 19.216 19.7105L18.4922 19.4551V21.8678Z" fill="#1F1F1F"/>
<path d="M30.2611 11.9188C30.2469 11.9188 30.2327 11.933 30.2043 11.933H24.5273C24.3854 11.933 24.2576 11.9046 24.1157 11.8478C23.8602 11.7343 23.6473 11.5356 23.5338 11.2659C23.4912 11.1382 23.4628 11.0105 23.4628 10.8686V5.19148C23.4628 5.17729 23.477 5.1631 23.477 5.13471C21.632 4.26896 19.5882 3.77222 17.4309 3.77222C9.5966 3.77222 3.23828 10.1305 3.23828 17.9649C3.23828 25.7992 9.5966 32.1576 17.4309 32.1576C25.2653 32.1576 31.6236 25.7992 31.6236 17.9649C31.6236 15.8076 31.1269 13.7639 30.2611 11.9188ZM19.9147 17.7094C20.823 18.0217 22.0436 18.6887 22.0436 20.775C22.0436 22.5491 20.6385 24.011 18.9212 24.011H18.4954V24.3658C18.4954 24.9477 18.0128 25.4302 17.4309 25.4302C16.849 25.4302 16.3665 24.9477 16.3665 24.3658V24.011H16.253C14.3653 24.011 12.8183 22.4214 12.8183 20.4628C12.8183 19.8667 13.3009 19.3842 13.8828 19.3842C14.4647 19.3842 14.9472 19.8667 14.9472 20.4486C14.9472 21.2292 15.5291 21.8679 16.253 21.8679H16.3665V18.7171L14.9472 18.2204C14.0389 17.9081 12.8183 17.2411 12.8183 15.1547C12.8183 13.3807 14.2234 11.9188 15.9407 11.9188H16.3665V11.5782C16.3665 10.9963 16.849 10.5137 17.4309 10.5137C18.0128 10.5137 18.4954 10.9963 18.4954 11.5782V11.933H18.6089C20.4966 11.933 22.0436 13.5226 22.0436 15.4812C22.0436 16.0631 21.561 16.5456 20.9791 16.5456C20.3972 16.5456 19.9147 16.0631 19.9147 15.4812C19.9147 14.7006 19.3328 14.0619 18.6089 14.0619H18.4954V17.2127L19.9147 17.7094Z" fill="#1F1F1F"/>
<path d="M14.9453 15.1688C14.9453 15.9352 15.1582 16.0487 15.6408 16.2191L16.3646 16.4745V14.0618H15.9388C15.3995 14.0618 14.9453 14.5585 14.9453 15.1688Z" fill="#1F1F1F"/>
</svg>
