<svg width="48" height="48" viewBox="0 0 48 48" fill="none" xmlns="http://www.w3.org/2000/svg">
<circle cx="24" cy="24" r="23.5" transform="matrix(-1 0 0 1 48 0)" fill="white" stroke="black"/>
<path d="M26.025 29.6834C26.1833 29.6834 26.3417 29.6251 26.4667 29.5001L31.525 24.4418C31.7667 24.2001 31.7667 23.8001 31.525 23.5584L26.4667 18.5001C26.225 18.2584 25.825 18.2584 25.5833 18.5001C25.3417 18.7418 25.3417 19.1418 25.5833 19.3834L30.2 24.0001L25.5833 28.6168C25.3417 28.8584 25.3417 29.2584 25.5833 29.5001C25.7 29.6251 25.8667 29.6834 26.025 29.6834Z" fill="#292D32"/>
<path d="M16.9167 24.625H30.9417C31.2833 24.625 31.5667 24.3417 31.5667 24C31.5667 23.6583 31.2833 23.375 30.9417 23.375H16.9167C16.575 23.375 16.2917 23.6583 16.2917 24C16.2917 24.3417 16.575 24.625 16.9167 24.625Z" fill="#292D32"/>
</svg>
