<svg width="48" height="48" viewBox="0 0 48 48" fill="none" xmlns="http://www.w3.org/2000/svg">
<circle cx="24" cy="24" r="23.5" fill="white" stroke="black"/>
<path d="M21.975 29.6834C21.8167 29.6834 21.6583 29.6251 21.5333 29.5001L16.475 24.4418C16.2333 24.2001 16.2333 23.8001 16.475 23.5584L21.5333 18.5001C21.775 18.2584 22.175 18.2584 22.4167 18.5001C22.6583 18.7418 22.6583 19.1418 22.4167 19.3834L17.8 24.0001L22.4167 28.6168C22.6583 28.8584 22.6583 29.2584 22.4167 29.5001C22.3 29.6251 22.1333 29.6834 21.975 29.6834Z" fill="#292D32"/>
<path d="M31.0833 24.625H17.0583C16.7167 24.625 16.4333 24.3417 16.4333 24C16.4333 23.6583 16.7167 23.375 17.0583 23.375H31.0833C31.425 23.375 31.7083 23.6583 31.7083 24C31.7083 24.3417 31.425 24.625 31.0833 24.625Z" fill="#292D32"/>
</svg>
