<svg width="35" height="35" viewBox="0 0 35 35" fill="none" xmlns="http://www.w3.org/2000/svg">
<path d="M13.4485 3.77222C9.73007 3.77222 6.70703 6.79526 6.70703 10.5137C6.70703 14.1613 9.55976 17.1133 13.2782 17.2411C13.3918 17.2269 13.5053 17.2269 13.5905 17.2411C13.6189 17.2411 13.6331 17.2411 13.6614 17.2411C13.6756 17.2411 13.6756 17.2411 13.6898 17.2411C17.3231 17.1133 20.1759 14.1613 20.1901 10.5137C20.1901 6.79526 17.167 3.77222 13.4485 3.77222Z" fill="#1F1F1F"/>
<path d="M20.6585 21.0163C16.6988 18.3764 10.2411 18.3764 6.25299 21.0163C4.45052 22.2226 3.45703 23.8548 3.45703 25.6005C3.45703 27.3462 4.45052 28.9641 6.23879 30.1563C8.22577 31.4904 10.8372 32.1575 13.4487 32.1575C16.0601 32.1575 18.6716 31.4904 20.6585 30.1563C22.4468 28.95 23.4403 27.332 23.4403 25.5721C23.4261 23.8264 22.4468 22.2084 20.6585 21.0163Z" fill="#1F1F1F"/>
<path d="M29.0484 11.351C29.2755 14.1044 27.3169 16.5172 24.6061 16.8436C24.5919 16.8436 24.5919 16.8436 24.5777 16.8436H24.5351C24.45 16.8436 24.3648 16.8436 24.2939 16.872C22.9172 16.9429 21.654 16.503 20.7031 15.694C22.165 14.3883 23.0023 12.4297 22.832 10.3008C22.7327 9.15116 22.3353 8.1009 21.7392 7.20676C22.2785 6.9371 22.903 6.76679 23.5417 6.71002C26.3234 6.46874 28.8071 8.54087 29.0484 11.351Z" fill="#1F1F1F"/>
<path d="M31.8854 24.4792C31.7718 25.8559 30.8919 27.0481 29.4159 27.857C27.9966 28.6376 26.2083 29.0067 24.4342 28.9641C25.4561 28.0415 26.0522 26.8919 26.1657 25.6714C26.3077 23.9115 25.4703 22.2226 23.7956 20.8743C22.8447 20.122 21.7376 19.526 20.5312 19.086C23.6678 18.1776 27.6134 18.7879 30.0403 20.7465C31.3461 21.7968 32.0131 23.1167 31.8854 24.4792Z" fill="#1F1F1F"/>
</svg>
