<svg width="35" height="35" viewBox="0 0 35 35" fill="none" xmlns="http://www.w3.org/2000/svg">
<path d="M10.0612 3.77222H8.64191C4.38411 3.77222 2.96484 6.3127 2.96484 9.44928V10.8686V30.7383C2.96484 31.9163 4.29895 32.5833 5.23567 31.8737L7.66262 30.057C8.23032 29.6313 9.02511 29.688 9.53605 30.199L11.892 32.5691C12.4455 33.1227 13.3539 33.1227 13.9074 32.5691L16.2918 30.1848C16.7885 29.688 17.5833 29.6313 18.1368 30.057L20.5638 31.8737C21.5005 32.5691 22.8346 31.9021 22.8346 30.7383V6.61075C22.8346 5.04956 24.1119 3.77222 25.6731 3.77222H10.0612ZM8.59933 20.8176C7.81874 20.8176 7.18007 20.1789 7.18007 19.3983C7.18007 18.6177 7.81874 17.9791 8.59933 17.9791C9.37993 17.9791 10.0186 18.6177 10.0186 19.3983C10.0186 20.1789 9.37993 20.8176 8.59933 20.8176ZM8.59933 15.1405C7.81874 15.1405 7.18007 14.5019 7.18007 13.7213C7.18007 12.9407 7.81874 12.302 8.59933 12.302C9.37993 12.302 10.0186 12.9407 10.0186 13.7213C10.0186 14.5019 9.37993 15.1405 8.59933 15.1405ZM17.1575 20.4628H12.8997C12.3178 20.4628 11.8353 19.9802 11.8353 19.3983C11.8353 18.8164 12.3178 18.3339 12.8997 18.3339H17.1575C17.7394 18.3339 18.222 18.8164 18.222 19.3983C18.222 19.9802 17.7394 20.4628 17.1575 20.4628ZM17.1575 14.7857H12.8997C12.3178 14.7857 11.8353 14.3032 11.8353 13.7213C11.8353 13.1394 12.3178 12.6568 12.8997 12.6568H17.1575C17.7394 12.6568 18.222 13.1394 18.222 13.7213C18.222 14.3032 17.7394 14.7857 17.1575 14.7857Z" fill="#1F1F1F"/>
<path d="M25.6848 3.77222V5.90112C26.6215 5.90112 27.5156 6.28432 28.1685 6.92299C28.8497 7.61843 29.2187 8.51257 29.2187 9.44928V12.8839C29.2187 13.9342 28.7504 14.4167 27.6859 14.4167H24.9609V6.62494C24.9609 6.22755 25.2874 5.90112 25.6848 5.90112V3.77222ZM25.6848 3.77222C24.1094 3.77222 22.832 5.04956 22.832 6.62494V16.5456H27.6859C29.9284 16.5456 31.3476 15.1264 31.3476 12.8839V9.44928C31.3476 7.88809 30.709 6.46882 29.6871 5.43276C28.651 4.41089 27.246 3.78641 25.6848 3.77222C25.699 3.77222 25.6848 3.77222 25.6848 3.77222Z" fill="#1F1F1F"/>
</svg>
