<svg width="32" height="32" viewBox="0 0 32 32" fill="none" xmlns="http://www.w3.org/2000/svg">
<path fill-rule="evenodd" clip-rule="evenodd" d="M14.6667 6.37037C10.0847 6.37037 6.37037 10.0847 6.37037 14.6667C6.37037 19.2486 10.0847 22.963 14.6667 22.963C19.2486 22.963 22.963 19.2486 22.963 14.6667C22.963 10.0847 19.2486 6.37037 14.6667 6.37037ZM4 14.6667C4 8.77563 8.77563 4 14.6667 4C20.5577 4 25.3333 8.77563 25.3333 14.6667C25.3333 20.5577 20.5577 25.3333 14.6667 25.3333C8.77563 25.3333 4 20.5577 4 14.6667Z" fill="#9A99AD"/>
<path fill-rule="evenodd" clip-rule="evenodd" d="M23.0216 23.022C23.495 22.5487 24.2625 22.5487 24.7358 23.022L27.6449 25.9311C28.1183 26.4045 28.1183 27.1719 27.6449 27.6453C27.1716 28.1187 26.4041 28.1187 25.9307 27.6453L23.0216 24.7362C22.5483 24.2628 22.5483 23.4954 23.0216 23.022Z" fill="#9A99AD"/>
</svg>
