<svg width="31" height="31" viewBox="0 0 31 31" fill="none" xmlns="http://www.w3.org/2000/svg">
<path d="M15.5 19.375C17.6401 19.375 19.375 17.6401 19.375 15.5C19.375 13.3599 17.6401 11.625 15.5 11.625C13.3599 11.625 11.625 13.3599 11.625 15.5C11.625 17.6401 13.3599 19.375 15.5 19.375Z" stroke="#1F1F1F" stroke-width="1.5" stroke-miterlimit="10" stroke-linecap="round" stroke-linejoin="round"/>
<path d="M2.58203 16.6367V14.3634C2.58203 13.02 3.67995 11.9092 5.0362 11.9092C7.37411 11.9092 8.32995 10.2559 7.15453 8.22794C6.48286 7.06544 6.88328 5.55419 8.0587 4.88252L10.2933 3.60377C11.3137 2.99669 12.6312 3.35835 13.2383 4.37877L13.3804 4.62419C14.5429 6.6521 16.4545 6.6521 17.6299 4.62419L17.772 4.37877C18.3791 3.35835 19.6966 2.99669 20.717 3.60377L22.9516 4.88252C24.127 5.55419 24.5274 7.06544 23.8558 8.22794C22.6804 10.2559 23.6362 11.9092 25.9741 11.9092C27.3174 11.9092 28.4283 13.0071 28.4283 14.3634V16.6367C28.4283 17.98 27.3304 19.0909 25.9741 19.0909C23.6362 19.0909 22.6804 20.7442 23.8558 22.7721C24.5274 23.9475 24.127 25.4459 22.9516 26.1175L20.717 27.3963C19.6966 28.0034 18.3791 27.6417 17.772 26.6213L17.6299 26.3759C16.4674 24.3479 14.5558 24.3479 13.3804 26.3759L13.2383 26.6213C12.6312 27.6417 11.3137 28.0034 10.2933 27.3963L8.0587 26.1175C6.88328 25.4459 6.48286 23.9346 7.15453 22.7721C8.32995 20.7442 7.37411 19.0909 5.0362 19.0909C3.67995 19.0909 2.58203 17.98 2.58203 16.6367Z" stroke="#1F1F1F" stroke-width="1.5" stroke-miterlimit="10" stroke-linecap="round" stroke-linejoin="round"/>
</svg>
