<svg width="24" height="24" viewBox="0 0 24 24" fill="none" xmlns="http://www.w3.org/2000/svg">
<path d="M16.1667 19.7083H7.83335C4.79169 19.7083 3.04169 17.9583 3.04169 14.9166V9.08329C3.04169 6.04163 4.79169 4.29163 7.83335 4.29163H16.1667C19.2084 4.29163 20.9584 6.04163 20.9584 9.08329V14.9166C20.9584 17.9583 19.2084 19.7083 16.1667 19.7083ZM7.83335 5.54163C5.45002 5.54163 4.29169 6.69996 4.29169 9.08329V14.9166C4.29169 17.3 5.45002 18.4583 7.83335 18.4583H16.1667C18.55 18.4583 19.7084 17.3 19.7084 14.9166V9.08329C19.7084 6.69996 18.55 5.54163 16.1667 5.54163H7.83335Z" fill="white"/>
<path d="M11.9998 12.725C11.2998 12.725 10.5915 12.5083 10.0498 12.0666L7.44146 9.98331C7.17479 9.76664 7.1248 9.37497 7.34146 9.10831C7.55813 8.84164 7.9498 8.79164 8.21647 9.00831L10.8248 11.0916C11.4581 11.6 12.5331 11.6 13.1665 11.0916L15.7748 9.00831C16.0415 8.79164 16.4415 8.83331 16.6498 9.10831C16.8665 9.37497 16.8248 9.77498 16.5498 9.98331L13.9415 12.0666C13.4081 12.5083 12.6998 12.725 11.9998 12.725Z" fill="white"/>
</svg>
