<svg width="12" height="13" viewBox="0 0 12 13" fill="none" xmlns="http://www.w3.org/2000/svg">
<path d="M7.00985 1.54754L8.03651 3.60087C8.17651 3.88671 8.54985 4.16087 8.86485 4.21337L10.7257 4.52254C11.9157 4.72087 12.1957 5.58421 11.3382 6.43587L9.89151 7.88254C9.64651 8.12754 9.51235 8.60004 9.58818 8.93837L10.0023 10.7292C10.329 12.1467 9.57651 12.695 8.32235 11.9542L6.57818 10.9217C6.26318 10.735 5.74401 10.735 5.42318 10.9217L3.67901 11.9542C2.43068 12.695 1.67235 12.1409 1.99901 10.7292L2.41318 8.93837C2.48901 8.60004 2.35485 8.12754 2.10985 7.88254L0.663179 6.43587C-0.188487 5.58421 0.0856795 4.72087 1.27568 4.52254L3.13651 4.21337C3.44568 4.16087 3.81901 3.88671 3.95901 3.60087L4.98568 1.54754C5.54568 0.433372 6.45568 0.433372 7.00985 1.54754Z" fill="#FFB63F"/>
</svg>
