<svg width="1440" height="1450" viewBox="0 0 1440 1450" fill="none" xmlns="http://www.w3.org/2000/svg">
<mask id="mask0_77_670" style="mask-type:alpha" maskUnits="userSpaceOnUse" x="0" y="0" width="1440" height="1450">
<rect width="1440" height="1450" fill="#D9D9D9"/>
</mask>
<g mask="url(#mask0_77_670)">
<g opacity="0.28">
<g filter="url(#filter0_f_77_670)">
<ellipse cx="503.002" cy="196.428" rx="503.002" ry="196.428" transform="matrix(0.700729 0.713427 -0.700263 0.713885 -522.042 -87.9253)" fill="#8349FF"/>
</g>
<g filter="url(#filter1_f_77_670)">
<ellipse cx="414.495" cy="203.518" rx="414.495" ry="203.518" transform="matrix(0.933065 0.359707 -0.342281 0.939598 -534.001 -176.89)" fill="#B7EAEA"/>
</g>
<g filter="url(#filter2_f_77_670)">
<ellipse cx="288.24" cy="131.069" rx="288.24" ry="131.069" transform="matrix(0.024404 0.999702 -0.999075 0.043004 210.469 161.506)" fill="#FF5EC6"/>
</g>
</g>
<mask id="mask1_77_670" style="mask-type:alpha" maskUnits="userSpaceOnUse" x="0" y="643" width="1440" height="874">
<rect y="643" width="1440" height="874" fill="#D9D9D9"/>
</mask>
<g mask="url(#mask1_77_670)">
<path opacity="0.1" fill-rule="evenodd" clip-rule="evenodd" d="M1934.9 1042.03L1934.9 1041.66C1840.99 1042.95 1680.68 1078.08 1413.24 1167.35C1311.35 1199.61 1114.68 1245.22 953.26 1253.27C887.399 1256.55 827.413 1253.58 782.155 1240.9C736.94 1228.22 706.417 1205.84 699.408 1170.29C691.825 1131.79 711.794 1077.87 770.508 1004.14C802.926 961.508 817.732 902.609 800.003 849.32C788.609 815.065 763.769 783.126 721.516 759.311C679.263 735.496 619.608 719.808 538.583 718.063C431.857 715.767 288.047 737.664 98.0902 797.052C-16.6181 832.631 -125.092 771.683 -230.23 699.591L-231.143 699.589C-125.705 771.919 -16.8869 833.168 98.4341 797.399C288.265 738.049 431.953 716.165 538.558 718.461C619.378 720.203 678.883 735.844 721.02 759.594C763.161 783.345 787.938 815.211 799.313 849.392C817.013 902.602 802.227 961.414 769.858 1003.98C711.09 1077.78 691.107 1131.77 698.704 1170.33C705.742 1206.03 736.405 1228.51 781.833 1241.25C827.218 1253.97 887.33 1256.95 953.312 1253.66C1114.85 1245.61 1311.64 1199.97 1413.58 1167.69L1413.59 1167.69C1681.05 1078.41 1841.21 1043.31 1934.89 1042.03M1934.83 1060.32L1934.83 1059.95C1845.96 1054.81 1685.16 1086.46 1401.85 1180.23C1287.17 1214.8 1090.95 1258.68 930.943 1266C863.936 1269.07 803.286 1265.72 757.679 1252.59C712.111 1239.48 681.537 1216.58 674.607 1180.54C667.333 1142.7 686.116 1090.36 740.965 1019.64L740.965 1019.64C771.612 976.253 785.889 917.077 768.336 863.799C756.976 829.315 732.287 797.3 690.077 773.622C647.858 749.94 588.124 734.604 506.694 733.489C403.69 732.079 265.954 753.425 85.0071 809.428C-36.5686 846.477 -150.606 776.517 -261.096 699.519L-261.999 699.517C-151.219 776.743 -36.852 847.016 85.3412 809.778C266.171 753.81 403.791 732.475 506.674 733.884C587.909 734.997 647.483 750.289 689.581 773.901C731.679 797.517 756.31 829.461 767.65 863.872C785.175 917.075 770.918 976.167 740.32 1019.49C685.422 1090.28 666.624 1142.68 673.912 1180.59C680.871 1216.78 711.586 1239.77 757.362 1252.95C803.1 1266.11 863.876 1269.47 931.005 1266.4C1091.11 1259.07 1287.46 1215.17 1402.19 1180.58L1402.2 1180.57C1685.61 1086.77 1846.22 1055.15 1934.84 1060.32L1934.83 1060.32ZM1934.77 1080.66L1934.77 1080.26C1852.45 1067.19 1692.33 1094.11 1390.46 1193.11C1263.33 1229.93 1067.57 1272.11 908.99 1278.77C840.788 1281.63 779.465 1277.92 733.466 1264.37C687.505 1250.84 656.825 1227.49 649.843 1191.05C642.718 1153.86 660.268 1103.05 711.427 1035.16L711.436 1035.15C740.284 990.989 754.042 931.534 736.683 878.26C725.377 843.56 700.873 811.48 658.741 787.949C616.603 764.415 556.849 749.434 475.058 748.945C375.791 748.348 244.045 769.1 71.9095 821.81C-56.5383 860.256 -175.992 780.823 -291.768 699.45L-292.671 699.448C-176.6 781.035 -56.8459 860.799 72.2436 822.16C244.263 769.482 375.892 748.744 475.052 749.34C556.639 749.829 616.233 764.766 658.244 788.231C700.26 811.702 724.707 843.706 735.988 878.332C753.323 931.532 739.584 990.906 710.776 1035.01C659.569 1102.96 642.004 1153.84 649.144 1191.09C656.155 1227.68 686.97 1251.13 733.139 1264.72C779.265 1278.31 840.714 1282.03 909.042 1279.16C1067.74 1272.5 1263.61 1230.29 1390.8 1193.45L1390.81 1193.45C1692.87 1094.38 1852.77 1067.52 1934.77 1080.66L1934.77 1080.66ZM1934.7 1104.01L1934.7 1103.56C1861.05 1080.4 1703.58 1100.59 1379.07 1205.99C1239.86 1244.97 1044.61 1285.53 887.43 1291.58C817.937 1294.25 755.901 1290.18 709.461 1276.23C663.064 1262.31 632.225 1238.51 625.089 1201.74C617.995 1165.21 634.278 1115.87 681.883 1050.67L681.893 1050.66C708.931 1005.71 722.176 945.966 705.025 892.701C693.788 857.797 669.502 825.668 627.496 802.295C585.49 778.917 525.768 764.299 443.674 764.426C348.145 764.572 222.307 784.684 58.802 834.195C-74.9474 873.508 -198.318 786.691 -318 702.466L-322.382 699.384L-323.285 699.382L-318.55 702.713C-198.683 787.061 -75.1334 874.009 59.1313 834.542C222.529 785.064 348.251 764.965 443.668 764.822C525.558 764.697 585.114 779.269 626.995 802.575C668.885 825.887 693.113 857.942 704.325 892.77C721.452 945.968 708.227 1005.63 681.223 1050.53C633.57 1115.79 617.277 1165.19 624.38 1201.78C631.545 1238.7 662.519 1262.59 709.12 1276.58C755.686 1290.56 817.853 1294.65 887.467 1291.97C1044.76 1285.92 1240.12 1245.34 1379.39 1206.34L1379.41 1206.33C1704.25 1100.82 1861.45 1080.73 1934.69 1104L1934.7 1104.01ZM1934.62 1132.2L1934.62 1131.63C1872.84 1095.05 1721.52 1105.12 1367.7 1218.87C1216.85 1259.91 1022.12 1298.91 866.321 1304.42C795.421 1306.93 732.598 1302.5 685.664 1288.17C638.764 1273.85 607.722 1249.64 600.339 1212.56C593.195 1176.69 608.182 1128.79 652.35 1066.18L652.35 1066.17C677.564 1020.41 690.309 960.38 673.391 907.117C662.243 872.022 638.215 839.861 596.383 816.653C554.546 793.442 494.915 779.192 412.576 779.924C320.79 780.742 200.778 800.174 45.7141 846.574C-88.4804 885.302 -211.599 798.734 -331.093 714.717C-338.421 709.563 -345.735 704.42 -353.039 699.316L-353.942 699.314C-346.522 704.5 -339.087 709.725 -331.637 714.964C-211.969 799.107 -88.6665 885.804 46.0433 846.924L46.0482 846.924C201 800.556 320.911 781.135 412.59 780.32C494.719 779.59 554.185 793.796 595.896 816.936C637.612 840.078 661.577 872.165 672.706 907.187C689.605 960.381 676.874 1020.34 651.7 1066.04C607.497 1128.71 592.501 1176.67 599.654 1212.6C607.066 1249.82 638.239 1274.14 685.338 1288.52C732.398 1302.89 795.356 1307.33 866.378 1304.82C1022.28 1299.31 1217.11 1260.29 1368.02 1219.23L1368.04 1219.22C1722.5 1105.27 1873.39 1095.4 1934.62 1132.2L1934.62 1132.2ZM1934.5 1170.25L1934.51 1169.26C1932.6 1166.83 1930.54 1164.5 1928.27 1162.26C1878.05 1112.53 1736.31 1110.92 1356.29 1231.76C1194.29 1274.75 1000.14 1312.26 845.728 1317.31C773.263 1319.68 709.558 1314.91 662.057 1300.19C614.594 1285.48 583.292 1260.84 575.589 1223.48C568.331 1188.28 582.002 1141.8 622.807 1081.69L622.807 1081.69L622.816 1081.68C646.168 1035.1 658.428 974.769 641.758 921.512C630.717 886.235 606.98 854.058 565.371 831.027C523.752 807.991 464.266 794.113 381.731 795.439C293.698 796.854 179.419 815.574 32.6164 858.953C-102.023 897.096 -224.895 810.777 -344.2 726.968C-357.48 717.637 -370.717 708.339 -383.92 699.249L-384.833 699.247C-371.509 708.42 -358.151 717.802 -344.754 727.215C-225.275 811.15 -102.224 897.595 32.9262 859.308C179.627 815.959 293.799 797.25 381.74 795.838C464.056 794.516 523.377 808.351 564.865 831.313C606.358 854.277 630.032 886.38 641.054 921.581C657.704 974.772 645.459 1035.03 622.132 1081.56C581.288 1141.72 567.603 1188.27 574.875 1223.53C582.606 1261.03 614.035 1285.77 661.701 1300.53C709.334 1315.29 773.165 1320.08 845.756 1317.71C1000.28 1312.66 1194.53 1275.13 1356.6 1232.11L1356.62 1232.1C1736.17 1111.42 1877.63 1112.92 1927.64 1162.45C1930.15 1164.93 1932.42 1167.54 1934.49 1170.25L1934.5 1170.25ZM1933.86 1385.66L1933.87 1381.17C1930.65 1358.22 1931.8 1333.23 1932.94 1308.42C1935.17 1259.88 1937.37 1212.02 1906.83 1181.42C1856.55 1131.05 1717.75 1127.47 1344.9 1244.64C1172.3 1289.47 978.776 1325.57 825.726 1330.25C751.499 1332.52 686.8 1327.39 638.649 1312.29C590.532 1297.19 558.924 1272.11 550.834 1234.47C543.409 1199.95 555.759 1154.86 593.273 1097.21L593.273 1097.2L593.283 1097.19C614.757 1049.77 626.547 989.133 610.144 935.88C599.23 900.436 575.823 868.257 534.481 845.413C493.129 822.566 433.84 809.056 351.178 810.963C266.878 812.908 158.25 830.882 19.5188 871.332C-115.566 908.885 -238.186 822.818 -357.297 739.216C-376.66 725.624 -395.931 712.097 -415.15 699.176L-416.068 699.174C-396.728 712.169 -377.331 725.783 -357.846 739.463C-238.561 823.191 -115.757 909.384 19.8334 871.687L19.8383 871.687C158.472 831.264 266.998 813.301 351.201 811.359C433.65 809.457 492.763 822.92 533.985 845.696C575.211 868.474 598.555 900.576 609.445 935.946C625.828 989.134 614.048 1049.7 592.598 1097.08C555.05 1154.79 542.695 1199.94 550.129 1234.52C558.249 1272.3 589.982 1297.47 638.298 1312.63C686.575 1327.78 751.406 1332.92 825.759 1330.65C978.911 1325.97 1172.54 1289.85 1345.22 1244.99L1345.24 1244.99C1717.61 1127.97 1856.13 1131.44 1906.21 1181.61C1936.66 1212.12 1934.46 1259.92 1932.23 1308.41C1931.02 1334.85 1929.8 1361.49 1933.85 1385.66L1933.86 1385.66ZM1933.7 1437.61L1933.71 1436.4C1914.61 1404.95 1914.79 1364.13 1914.95 1323.8C1915.15 1277.05 1915.35 1230.94 1885.56 1200.72C1835.21 1149.63 1699.36 1144 1333.53 1257.52C1150.96 1304.05 958.108 1338.84 806.395 1343.23C730.163 1345.44 664.332 1339.97 615.429 1324.47C566.566 1308.98 534.6 1283.45 526.059 1245.52C518.437 1211.68 529.453 1167.97 563.73 1112.71L563.74 1112.71L563.74 1112.7C583.317 1064.41 594.652 1003.47 578.545 950.223C567.777 914.624 544.744 882.459 503.712 859.81C462.67 837.154 403.643 824.021 320.891 826.493C240.33 828.899 137.271 846.1 6.42107 883.714C-129.104 920.679 -251.477 834.861 -370.394 751.464C-396.039 733.479 -421.524 715.609 -446.944 699.105L-447.877 699.103C-422.325 715.678 -396.714 733.638 -370.939 751.711C-251.847 835.231 -129.295 921.176 6.74053 884.069L6.74538 884.069C137.498 846.482 240.46 829.295 320.934 826.892C403.457 824.428 462.314 837.516 503.221 860.095C544.137 882.679 567.106 914.769 577.85 950.289C593.938 1003.48 582.618 1064.36 563.065 1112.6C528.749 1167.91 517.728 1211.67 525.364 1245.57C533.939 1283.64 566.031 1309.26 615.088 1324.82C664.112 1340.36 730.074 1345.84 806.438 1343.63C958.238 1339.23 1151.19 1304.43 1333.83 1257.88L1333.86 1257.87C1699.21 1144.5 1834.8 1150.02 1884.95 1200.91C1914.65 1231.04 1914.45 1277.1 1914.25 1323.8C1914.07 1364.63 1913.91 1405.95 1933.7 1437.61L1933.7 1437.61ZM1933.61 1466.69L1933.62 1465.89C1900.71 1433.61 1898.83 1386.07 1896.99 1339.19C1895.22 1294.28 1893.48 1249.97 1864.51 1220.18C1814.05 1168.29 1681.15 1160.5 1322.15 1270.4C1130.32 1318.48 938.218 1352.04 787.851 1356.26C709.331 1358.46 642.195 1352.66 592.438 1336.75C542.716 1320.85 510.334 1294.84 501.279 1256.62C493.423 1223.47 503.103 1181.13 534.201 1128.23L534.201 1128.22L534.211 1128.2C551.858 1079.04 562.752 1017.79 546.966 964.541C536.368 928.801 513.743 896.665 473.074 874.218C432.396 851.762 373.674 839.006 290.896 842.024C214.059 844.826 116.481 861.225 -6.65235 896.09C-142.627 932.474 -264.753 846.904 -383.482 763.713C-415.679 741.151 -447.625 718.767 -479.545 699.029L-480.501 699.027C-448.456 718.822 -416.37 741.302 -384.036 763.96C-265.133 847.271 -142.833 932.967 -6.35715 896.449L-6.35227 896.449C116.698 861.605 214.184 845.219 290.934 842.417C373.488 839.407 432.031 852.121 472.573 874.5C513.126 896.882 535.687 928.941 546.266 964.605C562.038 1017.79 551.154 1078.99 533.521 1128.11C502.394 1181.07 492.709 1223.46 500.579 1256.67C509.668 1295.03 542.176 1321.13 592.088 1337.09C641.97 1353.04 709.232 1358.86 787.884 1356.65C938.348 1352.43 1130.53 1318.86 1322.44 1270.76L1322.47 1270.75C1681 1160.99 1813.63 1168.67 1863.9 1220.37C1892.78 1250.07 1894.52 1294.33 1896.28 1339.19C1898.14 1386.41 1900.02 1434.31 1933.61 1466.68L1933.61 1466.69ZM1933.55 1489.74L1933.55 1489.12C1887.78 1457.66 1883.37 1405.72 1879.03 1354.57C1875.39 1311.57 1871.79 1269.13 1843.71 1239.83C1793.11 1187.03 1663.17 1176.96 1310.74 1283.28C1110.47 1332.74 919.227 1365.18 770.186 1369.33C689.028 1371.59 620.397 1365.46 569.656 1349.13C518.949 1332.81 486.098 1306.28 476.46 1267.73C468.349 1235.28 476.68 1194.31 504.653 1143.74L504.663 1143.72L504.663 1143.71C520.36 1093.65 530.832 1032.07 515.386 978.83C504.978 942.956 482.81 910.867 442.544 888.628C402.268 866.384 343.914 854 261.149 857.547C188.027 860.685 95.842 876.259 -19.7743 908.47C-156.189 944.263 -278.064 858.942 -396.603 775.958C-428.786 753.426 -460.727 731.069 -492.652 711.346L-492.653 711.932C-460.913 731.568 -429.157 753.802 -397.153 776.205C-278.444 859.309 -156.395 944.753 -19.4694 908.825L-19.4645 908.825C96.0642 876.636 188.161 861.072 261.201 857.94C343.728 854.401 401.907 866.743 442.042 888.908C482.187 911.081 504.298 943.096 514.682 978.891C530.108 1032.07 519.646 1093.6 503.964 1143.63C475.966 1194.26 467.635 1235.28 475.756 1267.78C485.422 1306.47 518.394 1333.09 569.295 1349.47C620.162 1365.85 688.925 1371.99 770.209 1369.72C919.342 1365.56 1110.68 1333.11 1311.04 1283.64L1311.06 1283.63C1663.01 1177.45 1792.67 1187.42 1843.08 1240.02C1871.08 1269.24 1874.68 1311.63 1878.32 1354.58C1882.68 1406 1887.11 1458.22 1933.53 1489.73L1933.55 1489.74ZM1917.26 1499.99L1918.16 1499.99C1874.19 1468.78 1867.59 1419.01 1861.1 1369.97C1855.67 1328.96 1850.31 1288.46 1823.2 1259.73C1772.41 1205.89 1645.48 1193.39 1299.37 1296.16C1091.58 1346.79 901.289 1378.22 753.564 1382.44C669.361 1384.84 598.997 1378.4 547.125 1361.63C495.288 1344.87 461.914 1317.78 451.636 1278.87C443.251 1247.13 450.243 1207.52 475.119 1159.25L475.12 1159.23L475.129 1159.22C495.145 1084.8 507.396 987.117 445.027 927.074C382.619 866.995 245.601 844.599 -32.8526 920.849C-169.718 956.057 -291.34 870.987 -409.691 788.209C-437.488 768.767 -465.105 749.451 -492.699 731.846L-492.7 732.444C-465.291 749.953 -437.853 769.143 -410.24 788.456C-291.725 871.355 -169.923 956.547 -32.5574 921.21L-32.5476 921.21C245.469 845.076 382.205 867.373 444.424 927.274C506.681 987.211 494.44 1084.8 474.44 1159.15C449.539 1207.48 442.547 1247.14 450.942 1278.93C461.248 1317.96 494.748 1345.15 546.775 1361.97C598.767 1378.78 669.262 1385.24 753.602 1382.84C901.414 1378.62 1091.8 1347.17 1299.66 1296.52L1299.68 1296.52C1645.32 1193.88 1771.99 1206.28 1822.58 1259.91C1849.62 1288.57 1854.97 1329.03 1860.4 1370C1866.88 1418.97 1873.47 1468.67 1917.26 1499.99L1917.26 1499.99ZM1889.01 1499.92L1889.84 1499.93C1858.51 1469.36 1850.8 1427.1 1843.2 1385.38C1836.1 1346.45 1829.09 1307.99 1803.05 1279.91C1752.03 1224.9 1628.13 1209.77 1287.99 1309.05C1073.74 1360.62 884.552 1391.17 738.153 1395.58C650.402 1398.23 578.038 1391.49 524.871 1374.25C471.734 1357.03 437.769 1329.32 426.784 1290.02C418.115 1259 423.756 1220.76 445.586 1174.76L445.586 1174.75L445.596 1174.73C462.539 1099.55 475.258 1002.76 415.949 942.972C356.6 883.137 225.232 860.342 -45.9454 933.233C-183.256 967.854 -304.631 883.036 -422.793 800.463C-446.208 784.097 -469.498 767.825 -492.761 752.582L-492.763 753.187C-469.679 768.324 -446.569 784.473 -423.338 800.71C-305.011 883.401 -183.461 968.342 -45.6551 933.594L-45.6453 933.594C225.08 860.819 356.172 883.513 415.336 943.162C474.534 1002.85 461.835 1099.54 444.901 1174.66C423.048 1220.71 417.405 1259 426.089 1290.08C437.108 1329.5 471.194 1357.3 524.516 1374.59C577.804 1391.87 650.309 1398.63 738.19 1395.98C884.682 1391.56 1073.95 1361 1288.28 1309.41L1288.3 1309.4C1627.96 1210.27 1751.6 1225.28 1802.43 1280.09C1828.4 1308.1 1835.41 1346.52 1842.49 1385.42C1850.09 1427.09 1857.79 1469.31 1889.01 1499.93L1889.01 1499.92ZM1863.94 1499.87L1864.71 1499.87C1841.88 1471.48 1833.55 1435.94 1825.31 1400.8C1816.69 1364.06 1808.18 1327.75 1783.33 1300.45C1732.01 1244.07 1611.19 1226.09 1276.59 1321.93C1057.09 1374.19 869.209 1403.98 724.144 1408.74C632.255 1411.75 557.555 1404.72 502.899 1387C448.276 1369.29 413.658 1340.89 401.892 1301.16C392.924 1270.87 397.227 1234.01 416.048 1190.27L416.048 1190.25L416.057 1190.24C429.928 1114.29 443.111 1018.41 386.866 958.865C330.577 899.274 204.849 876.08 -59.0431 945.615C-196.798 979.645 -317.927 895.076 -435.89 812.711C-454.929 799.417 -473.885 786.182 -492.819 773.511L-492.82 774.122C-474.066 786.681 -455.289 799.792 -436.435 812.958C-318.297 895.441 -197.004 980.131 -58.7527 945.976L-58.743 945.976C204.692 876.56 330.138 899.65 386.248 959.049C442.397 1018.49 429.224 1114.29 415.363 1190.19C396.527 1233.97 392.225 1270.89 401.207 1301.22C413.011 1341.08 447.746 1369.58 502.558 1387.35C557.34 1405.11 632.171 1412.15 724.197 1409.13C869.344 1404.37 1057.31 1374.57 1276.9 1322.29L1276.92 1322.29C1611.02 1226.58 1731.58 1244.45 1782.71 1300.62C1807.51 1327.87 1816.02 1364.14 1824.63 1400.85C1832.86 1435.95 1841.19 1471.45 1863.96 1499.87L1863.94 1499.87ZM1840.49 1499.82L1841.24 1499.82C1824.36 1474.6 1815.86 1445.27 1807.45 1416.22C1797.5 1381.83 1787.66 1347.82 1764.13 1321.44C1712.43 1263.46 1594.78 1242.32 1265.21 1334.81C1041.8 1387.47 855.479 1416.62 711.792 1421.88C615.039 1425.43 537.626 1418.14 481.251 1399.9C424.916 1381.68 389.586 1352.51 376.957 1312.28C367.69 1282.75 370.648 1247.27 386.504 1205.77L386.504 1205.77L386.509 1205.75L386.658 1204.68C397.169 1130 410.072 1038.34 361.5 979.104C310.251 916.598 190.648 890.217 -72.1505 957.989C-210.351 991.432 -331.227 907.111 -449.007 824.953C-463.679 814.719 -478.297 804.521 -492.901 794.587L-492.903 795.203C-478.483 805.02 -464.044 815.092 -449.557 825.2C-331.612 907.476 -210.566 991.917 -71.8747 958.352L-71.865 958.352C190.448 890.702 309.769 916.967 360.853 979.269C409.348 1038.41 396.45 1130.02 385.949 1204.65L385.8 1205.7C369.929 1247.24 366.972 1282.77 376.252 1312.35C388.915 1352.7 424.361 1381.96 480.886 1400.25C537.382 1418.52 614.926 1425.83 711.82 1422.28C855.59 1417.01 1041.99 1387.85 1265.47 1335.17L1265.5 1335.17C1594.57 1242.82 1711.96 1263.84 1763.49 1321.62C1786.97 1347.95 1796.8 1381.92 1806.74 1416.28C1815.14 1445.3 1823.62 1474.6 1840.47 1499.82L1840.49 1499.82ZM1817.73 1499.77L1818.47 1499.77C1805.87 1478.44 1797.72 1454.96 1789.64 1431.66C1778.58 1399.81 1767.65 1368.29 1745.62 1343.03C1693.42 1283.16 1579.05 1258.46 1253.82 1347.69C1028.08 1400.42 843.664 1429.05 701.427 1434.99C598.916 1439.26 518.327 1431.75 459.982 1412.97C401.666 1394.2 365.562 1364.16 351.987 1323.38C342.418 1294.63 344.04 1260.54 356.971 1221.29L356.971 1221.28L356.971 1221.26C357.527 1215.72 358.112 1210.08 358.702 1204.39C366.259 1131.71 374.936 1048.29 330.965 993.406C282.014 932.312 167.936 906.585 -85.2433 970.376C-223.894 1003.23 -344.514 919.16 -462.099 837.207C-472.404 830.025 -482.684 822.859 -492.955 815.789L-492.957 816.413C-482.87 823.361 -472.769 830.4 -462.649 837.454C-344.898 919.522 -224.104 1003.71 -84.9578 970.737L-84.953 970.737C167.731 907.07 281.537 932.68 330.323 993.568C374.226 1048.36 365.554 1131.73 358.003 1204.36C357.412 1210.05 356.822 1215.68 356.271 1221.22C343.331 1260.52 341.709 1294.66 351.293 1323.45C364.906 1364.35 401.126 1394.48 459.626 1413.31C518.097 1432.14 598.823 1439.66 701.474 1435.38C843.789 1429.44 1028.28 1400.8 1254.1 1348.06L1254.12 1348.05C1578.84 1258.96 1692.95 1283.54 1744.98 1343.21C1766.97 1368.42 1777.9 1399.91 1788.94 1431.73C1797.02 1455 1805.15 1478.45 1817.72 1499.77L1817.73 1499.77ZM1794.99 1499.71L1795.73 1499.72C1786.4 1482.78 1779.11 1464.89 1771.86 1447.11C1760.01 1418.06 1748.29 1389.29 1727.98 1365.43C1675.12 1303.28 1564.25 1274.45 1242.43 1360.58C928.158 1433.36 699.231 1459.5 547.998 1446.34C495.619 1441.79 452.565 1432.51 418.519 1418.83C384.488 1405.15 359.451 1387.06 343.096 1364.87C318.319 1331.25 313.47 1288.2 327.427 1236.79L327.427 1236.79L327.428 1236.77C328.031 1226.64 328.806 1216.19 329.59 1205.6C334.794 1135.39 340.468 1058.83 300.497 1007.68C253.874 948.005 145.258 922.912 -98.341 982.755C-237.436 1015.02 -357.809 931.203 -475.206 849.455C-481.149 845.317 -487.091 841.181 -493.024 837.067L-493.026 837.694C-487.272 841.685 -481.519 845.692 -475.756 849.705C-358.194 931.568 -237.651 1015.51 -98.0652 983.122L-98.0604 983.122C145.043 923.397 253.392 948.375 299.851 1007.84C339.754 1058.91 334.084 1135.42 328.886 1205.59C328.106 1216.13 327.332 1226.53 326.728 1236.74C312.751 1288.22 317.624 1331.33 342.449 1365.02C358.853 1387.28 383.968 1405.43 418.11 1419.15C452.243 1432.87 495.399 1442.17 547.89 1446.73C699.249 1459.9 928.308 1433.75 1242.71 1360.94L1242.73 1360.94C1564.03 1274.95 1674.66 1303.66 1727.35 1365.6C1747.62 1389.42 1759.34 1418.17 1771.17 1447.2C1778.41 1464.95 1785.69 1482.81 1795 1499.71L1794.99 1499.71ZM1771.74 1499.66L1772.48 1499.66C1765.87 1487.5 1759.98 1475.01 1754.12 1462.58C1741.91 1436.69 1729.82 1411.03 1711.55 1388.96C1657.8 1324.01 1550.77 1290.23 1231.05 1373.46C918.919 1445.19 694.985 1471.11 544.389 1461.04C485.126 1457.08 437.225 1447.54 399.777 1433.03C362.344 1418.52 335.358 1399.03 317.906 1375.17C293.725 1342.09 287.855 1300.61 297.889 1252.3L297.889 1252.29L297.889 1252.28C298.175 1237.87 298.914 1222.99 299.659 1207.95C303.009 1140.44 306.514 1069.79 270.127 1021.93C225.855 963.688 122.644 939.199 -111.434 995.137C-250.979 1026.82 -371.1 943.246 -488.309 861.703L-493.088 858.38L-493.09 859.008L-488.858 861.953C-371.485 943.608 -251.194 1027.29 -111.163 995.503L-111.158 995.503C122.424 939.681 225.368 964.055 269.476 1022.08C305.804 1069.87 302.299 1140.48 298.955 1207.94C298.21 1222.96 297.471 1237.82 297.185 1252.27C287.136 1300.64 293.02 1342.18 317.25 1375.32C334.755 1399.26 361.823 1418.8 399.373 1433.36C436.908 1447.91 484.916 1457.47 544.296 1461.44C695.013 1471.52 919.063 1445.58 1231.31 1373.83L1231.32 1373.82C1550.52 1290.73 1657.32 1324.38 1710.9 1389.13C1729.14 1411.16 1741.23 1436.81 1753.43 1462.68C1759.28 1475.08 1765.15 1487.53 1771.73 1499.67L1771.74 1499.66ZM1747.49 1499.61L1748.23 1499.61C1744.2 1492.46 1740.31 1485.25 1736.44 1478.06C1724.49 1455.89 1712.64 1433.88 1696.86 1414.23C1641.85 1345.68 1539.29 1305.67 1219.65 1386.34C840.03 1472.95 595.455 1492.3 449.158 1465.49C302.974 1438.69 254.953 1365.76 268.37 1267.8L268.37 1267.79L268.37 1267.78C268.027 1249.34 268.589 1230.29 269.152 1211.17C271.065 1146.49 273 1081.04 239.874 1036.13C197.977 979.338 100.107 955.428 -124.502 1007.51C-261.207 1037.87 -378.72 959.138 -493.132 879.686L-493.134 880.314C-378.736 959.749 -261.204 1038.3 -124.241 1007.88C99.8773 955.911 197.486 979.708 239.223 1036.29C272.291 1081.11 270.361 1146.53 268.448 1211.16C267.885 1230.29 267.318 1249.35 267.661 1267.78C254.229 1365.93 302.376 1439 448.934 1465.86C595.385 1492.7 840.131 1473.36 1219.94 1386.7L1219.95 1386.7C1539.04 1306.16 1641.37 1346.04 1696.23 1414.38C1711.99 1434.02 1723.84 1456.01 1735.78 1478.17C1739.64 1485.32 1743.5 1492.49 1747.51 1499.6L1747.49 1499.61ZM1721.73 1499.55L1722.48 1499.55C1721.25 1497.56 1720.04 1495.56 1718.82 1493.57C1708.15 1476.07 1697.54 1458.68 1684.99 1442.49C1628.06 1369.06 1531.33 1320.47 1208.26 1399.22C813.079 1488.79 567.985 1506.13 423.058 1477.9C278.233 1449.7 233.454 1375.95 238.832 1283.31L238.832 1283.3C237.568 1261.02 237.88 1237.99 238.186 1215.1C239.013 1153.32 239.831 1092.53 209.713 1050.33C170.211 994.985 77.6189 971.625 -137.6 1019.89C-269.52 1048.54 -383.072 976.985 -493.196 900.956L-493.198 901.584C-383.084 977.583 -269.507 1048.97 -137.344 1020.26L-137.339 1020.26C77.3747 972.102 169.71 995.35 209.057 1050.47C239.122 1092.6 238.308 1153.35 237.477 1215.09C237.17 1237.99 236.859 1261.03 238.123 1283.3C232.74 1376.11 277.635 1450 422.824 1478.27C567.906 1506.53 813.166 1489.2 1208.55 1399.58L1208.56 1399.58C1531.06 1320.97 1627.58 1369.42 1684.36 1442.64C1696.9 1458.82 1707.51 1476.2 1718.17 1493.7C1719.36 1495.64 1720.56 1497.59 1721.74 1499.54L1721.73 1499.55ZM794.752 1497.47L797.661 1497.48C906.766 1482.59 1034.97 1459.12 1185.77 1425.35C1511.88 1352.32 1597.98 1418.25 1663.41 1499.42L1664.18 1499.42C1598.6 1418 1512.47 1351.76 1185.5 1424.99C1033.48 1459.03 904.425 1482.6 794.767 1497.47L794.752 1497.47ZM694.139 1497.25L698.486 1497.26C828.972 1485.48 992.594 1458.54 1197.15 1412.47L1197.16 1412.47C1560.76 1327.27 1631.44 1409.06 1693.92 1499.49L1694.68 1499.49C1632.04 1408.81 1561.36 1326.7 1196.89 1412.1C990.155 1458.67 825.27 1485.68 694.154 1497.24L694.139 1497.25ZM431.245 1496.66L434.227 1496.66C421.099 1494.86 408.671 1492.75 396.939 1490.32C253.473 1460.71 211.936 1386.13 209.274 1298.82L209.274 1298.81C206.826 1272.82 206.848 1245.97 206.869 1219.59C206.915 1160.74 206.958 1104.2 179.644 1064.5C142.562 1010.61 55.1797 987.765 -150.712 1032.27C-277.795 1059.26 -387.389 994.494 -493.259 922.144L-493.261 922.766C-387.401 995.078 -277.777 1059.68 -150.441 1032.64C54.9451 988.239 142.08 1010.97 179.003 1064.64C206.273 1104.27 206.225 1160.77 206.18 1219.59C206.159 1245.97 206.141 1272.81 208.579 1298.82C211.246 1386.29 252.889 1461 396.705 1490.69C407.621 1492.95 419.131 1494.94 431.254 1496.66L431.245 1496.66ZM344.1 1496.46L345.703 1496.47C280.591 1478.2 240.481 1449.33 215.751 1414.64C176.506 1359.57 175.904 1289.82 175.347 1224.55C174.864 1168.64 174.414 1116.01 149.726 1078.64C115.088 1026.21 32.8425 1003.85 -163.805 1044.65C-286.055 1070.02 -391.686 1011.67 -493.342 943.215L-493.344 943.832C-391.692 1012.24 -286.032 1070.44 -163.558 1045.02C32.5788 1004.32 114.577 1026.57 149.065 1078.78C173.705 1116.08 174.159 1168.68 174.642 1224.55C175.204 1289.86 175.801 1359.64 215.099 1414.78C239.728 1449.34 279.591 1478.12 344.1 1496.46L344.1 1496.46ZM-199.917 699.656C-99.9465 766.585 3.13675 819.233 111.546 785.014C310.567 722.193 460.396 699.807 570.704 703.061C651.061 705.435 710.439 721.419 752.57 745.294C794.706 769.171 819.6 800.944 830.99 834.886C848.851 888.098 833.526 946.636 799.411 988.453C736.519 1065.53 715.424 1121.2 723.558 1160.4C730.84 1195.49 761.525 1217.39 806.619 1229.64C851.671 1241.88 911.103 1244.47 975.945 1240.96C1138.92 1232.13 1336.14 1184.7 1424.99 1154.8C1678.52 1069.49 1837.39 1031.83 1934.95 1025.26L1934.95 1024.9C1837.2 1031.48 1678.18 1069.14 1424.63 1154.47C1335.83 1184.35 1138.74 1231.75 975.879 1240.57C911.158 1244.07 851.856 1241.49 806.931 1229.28C762.05 1217.09 731.511 1195.29 724.262 1160.36C716.142 1121.23 737.223 1065.63 800.052 988.624C834.225 946.741 849.574 888.111 831.685 834.816C820.266 800.801 795.314 768.955 753.071 745.017C710.824 721.076 651.296 705.048 570.744 702.668C460.315 699.409 310.35 721.808 111.202 784.67C3.3958 818.699 -99.3289 766.336 -198.99 699.658L-199.912 699.656L-199.917 699.656Z" fill="black"/>
</g>
<g opacity="0.28">
<g filter="url(#filter3_f_77_670)">
<ellipse cx="503.002" cy="196.428" rx="503.002" ry="196.428" transform="matrix(-0.668374 -0.743825 0.731258 -0.682101 1834.69 1871.06)" fill="#8349FF"/>
</g>
<g filter="url(#filter4_f_77_670)">
<ellipse cx="414.495" cy="203.518" rx="414.495" ry="203.518" transform="matrix(-0.916181 -0.400766 0.383646 -0.92348 1842.69 1960.47)" fill="#B7EAEA"/>
</g>
<g filter="url(#filter5_f_77_670)">
<ellipse cx="288.24" cy="131.069" rx="288.24" ry="131.069" transform="matrix(0.0199904 -0.9998 0.999999 0.00138084 1113.97 1589.36)" fill="#FF5EC6"/>
</g>
</g>
</g>
<defs>
<filter id="filter0_f_77_670" x="-985.584" y="-274.226" width="1356.92" height="1370.77" filterUnits="userSpaceOnUse" color-interpolation-filters="sRGB">
<feFlood flood-opacity="0" result="BackgroundImageFix"/>
<feBlend mode="normal" in="SourceGraphic" in2="BackgroundImageFix" result="shape"/>
<feGaussianBlur stdDeviation="150" result="effect1_foregroundBlur_77_670"/>
</filter>
<filter id="filter1_f_77_670" x="-909.953" y="-379.059" width="1386.08" height="1084.98" filterUnits="userSpaceOnUse" color-interpolation-filters="sRGB">
<feFlood flood-opacity="0" result="BackgroundImageFix"/>
<feBlend mode="normal" in="SourceGraphic" in2="BackgroundImageFix" result="shape"/>
<feGaussianBlur stdDeviation="150" result="effect1_foregroundBlur_77_670"/>
</filter>
<filter id="filter2_f_77_670" x="-344.584" y="-132.914" width="862.28" height="1176.42" filterUnits="userSpaceOnUse" color-interpolation-filters="sRGB">
<feFlood flood-opacity="0" result="BackgroundImageFix"/>
<feBlend mode="normal" in="SourceGraphic" in2="BackgroundImageFix" result="shape"/>
<feGaussianBlur stdDeviation="150" result="effect1_foregroundBlur_77_670"/>
</filter>
<filter id="filter3_f_77_670" x="976.447" y="665.409" width="1331.38" height="1395.04" filterUnits="userSpaceOnUse" color-interpolation-filters="sRGB">
<feFlood flood-opacity="0" result="BackgroundImageFix"/>
<feBlend mode="normal" in="SourceGraphic" in2="BackgroundImageFix" result="shape"/>
<feGaussianBlur stdDeviation="150" result="effect1_foregroundBlur_77_670"/>
</filter>
<filter id="filter4_f_77_670" x="853.242" y="1055.57" width="1375.55" height="1101.67" filterUnits="userSpaceOnUse" color-interpolation-filters="sRGB">
<feFlood flood-opacity="0" result="BackgroundImageFix"/>
<feBlend mode="normal" in="SourceGraphic" in2="BackgroundImageFix" result="shape"/>
<feGaussianBlur stdDeviation="150" result="effect1_foregroundBlur_77_670"/>
</filter>
<filter id="filter5_f_77_670" x="819.604" y="713.178" width="862.396" height="1176.36" filterUnits="userSpaceOnUse" color-interpolation-filters="sRGB">
<feFlood flood-opacity="0" result="BackgroundImageFix"/>
<feBlend mode="normal" in="SourceGraphic" in2="BackgroundImageFix" result="shape"/>
<feGaussianBlur stdDeviation="150" result="effect1_foregroundBlur_77_670"/>
</filter>
</defs>
</svg>
