<svg width="23" height="18" viewBox="0 0 23 18" fill="none" xmlns="http://www.w3.org/2000/svg">
<path d="M22.3957 2.25C21.5936 2.61458 20.729 2.85417 19.8332 2.96875C20.7498 2.41667 21.4582 1.54167 21.7915 0.489585C20.9269 1.01042 19.9686 1.375 18.9582 1.58333C18.1353 0.687501 16.979 0.166668 15.6665 0.166668C13.2186 0.166668 11.2186 2.16667 11.2186 4.63542C11.2186 4.98958 11.2603 5.33333 11.3332 5.65625C7.62484 5.46875 4.32275 3.6875 2.12484 0.989585C1.73942 1.64583 1.52067 2.41667 1.52067 3.22917C1.52067 4.78125 2.30192 6.15625 3.51025 6.9375C2.77067 6.9375 2.08317 6.72917 1.479 6.41667V6.44792C1.479 8.61458 3.02067 10.4271 5.06234 10.8333C4.40684 11.0127 3.71869 11.0377 3.05192 10.9063C3.33484 11.7943 3.88894 12.5713 4.63631 13.1281C5.38369 13.6848 6.28676 13.9934 7.21859 14.0104C5.63903 15.2609 3.68108 15.9368 1.6665 15.9271C1.31234 15.9271 0.958171 15.9062 0.604004 15.8646C2.58317 17.1354 4.93734 17.875 7.45817 17.875C15.6665 17.875 20.1769 11.0625 20.1769 5.15625C20.1769 4.95833 20.1769 4.77083 20.1665 4.57292C21.0415 3.94792 21.7915 3.15625 22.3957 2.25Z" fill="#1F1F1F"/>
</svg>
