<svg width="45" height="45" viewBox="0 0 45 45" fill="none" xmlns="http://www.w3.org/2000/svg">
<rect x="0.580017" y="0.390137" width="44" height="44" rx="3" fill="white"/>
<path d="M22.5 13.0664C24.0423 13.0664 25.0493 13.0702 25.521 13.0776C25.9927 13.0851 26.5355 13.1038 27.1494 13.1338C27.7035 13.1637 28.1452 13.2199 28.4746 13.3022C28.804 13.3846 29.0736 13.4632 29.2832 13.5381C29.5527 13.6429 29.7886 13.7627 29.9907 13.8975C30.1929 14.0322 30.3988 14.1969 30.6084 14.3916C30.8031 14.6012 30.9678 14.8071 31.1025 15.0093C31.2373 15.2114 31.3571 15.4473 31.4619 15.7168C31.5368 15.9264 31.6154 16.196 31.6978 16.5254C31.7801 16.8548 31.8363 17.2965 31.8662 17.8506C31.8962 18.4645 31.9149 19.0073 31.9224 19.479C31.9298 19.9507 31.9336 20.9577 31.9336 22.5C31.9336 24.0423 31.9298 25.0493 31.9224 25.521C31.9149 25.9927 31.8962 26.5355 31.8662 27.1494C31.8363 27.7035 31.7801 28.1452 31.6978 28.4746C31.6154 28.804 31.5368 29.0736 31.4619 29.2832C31.3571 29.5527 31.2373 29.7886 31.1025 29.9907C30.9678 30.1929 30.8031 30.3988 30.6084 30.6084C30.3988 30.8031 30.1929 30.9678 29.9907 31.1025C29.7886 31.2373 29.5527 31.3571 29.2832 31.4619C29.0736 31.5368 28.804 31.6154 28.4746 31.6978C28.1452 31.7801 27.7035 31.8363 27.1494 31.8662C26.5355 31.8962 25.9927 31.9149 25.521 31.9224C25.0493 31.9299 24.0423 31.9336 22.5 31.9336C20.9577 31.9336 19.9507 31.9299 19.479 31.9224C19.0073 31.9149 18.4645 31.8962 17.8506 31.8662C17.2965 31.8363 16.8548 31.7801 16.5254 31.6978C16.196 31.6154 15.9264 31.5368 15.7168 31.4619C15.4473 31.3571 15.2114 31.2373 15.0093 31.1025C14.8071 30.9678 14.6012 30.8031 14.3916 30.6084C14.1969 30.3988 14.0322 30.1929 13.8975 29.9907C13.7627 29.7886 13.6429 29.5527 13.5381 29.2832C13.4632 29.0736 13.3846 28.804 13.3022 28.4746C13.2199 28.1452 13.1637 27.7035 13.1338 27.1494C13.1038 26.5355 13.0851 25.9927 13.0776 25.521C13.0701 25.0493 13.0664 24.0423 13.0664 22.5C13.0664 20.9577 13.0701 19.9507 13.0776 19.479C13.0851 19.0073 13.1038 18.4645 13.1338 17.8506C13.1637 17.2965 13.2199 16.8548 13.3022 16.5254C13.3846 16.196 13.4632 15.9264 13.5381 15.7168C13.6429 15.4473 13.7627 15.2114 13.8975 15.0093C14.0322 14.8071 14.1969 14.6012 14.3916 14.3916C14.6012 14.1969 14.8071 14.0322 15.0093 13.8975C15.2114 13.7627 15.4473 13.6429 15.7168 13.5381C15.9264 13.4632 16.196 13.3846 16.5254 13.3022C16.8548 13.2199 17.2965 13.1637 17.8506 13.1338C18.4645 13.1038 19.0073 13.0851 19.479 13.0776C19.9507 13.0702 20.9577 13.0664 22.5 13.0664ZM22.5 11C20.9427 11 19.917 11.0037 19.4229 11.0112C18.9287 11.0187 18.3747 11.0374 17.7607 11.0674C17.1468 11.0973 16.619 11.1572 16.1772 11.2471C15.7355 11.3369 15.335 11.4567 14.9756 11.6064C14.5863 11.7562 14.2269 11.9359 13.8975 12.1455C13.568 12.3551 13.2461 12.6172 12.9316 12.9316C12.6172 13.2461 12.3551 13.568 12.1455 13.8975C11.9359 14.2269 11.7562 14.5863 11.6064 14.9756C11.4567 15.335 11.3369 15.7355 11.2471 16.1772C11.1572 16.619 11.0973 17.1468 11.0674 17.7607C11.0374 18.3747 11.0187 18.9287 11.0112 19.4229C11.0037 19.917 11 20.9427 11 22.5C11 24.0573 11.0037 25.083 11.0112 25.5771C11.0187 26.0713 11.0374 26.6253 11.0674 27.2393C11.0973 27.8532 11.1572 28.381 11.2471 28.8228C11.3369 29.2645 11.4567 29.665 11.6064 30.0244C11.7562 30.4137 11.9359 30.7731 12.1455 31.1025C12.3551 31.432 12.6172 31.7539 12.9316 32.0684C13.2461 32.3828 13.568 32.6449 13.8975 32.8545C14.2269 33.0641 14.5863 33.2438 14.9756 33.3936C15.335 33.5433 15.7355 33.6631 16.1772 33.7529C16.619 33.8428 17.1468 33.9027 17.7607 33.9326C18.3747 33.9626 18.9287 33.9813 19.4229 33.9888C19.917 33.9963 20.9427 34 22.5 34C24.0573 34 25.083 33.9963 25.5771 33.9888C26.0713 33.9813 26.6253 33.9626 27.2393 33.9326C27.8532 33.9027 28.381 33.8428 28.8228 33.7529C29.2645 33.6631 29.665 33.5433 30.0244 33.3936C30.4137 33.2438 30.7731 33.0641 31.1025 32.8545C31.432 32.6449 31.7539 32.3828 32.0684 32.0684C32.3828 31.7539 32.6449 31.432 32.8545 31.1025C33.0641 30.7731 33.2438 30.4137 33.3936 30.0244C33.5433 29.665 33.6631 29.2645 33.7529 28.8228C33.8428 28.381 33.9027 27.8532 33.9326 27.2393C33.9626 26.6253 33.9813 26.0713 33.9888 25.5771C33.9963 25.083 34 24.0573 34 22.5C34 20.9427 33.9963 19.917 33.9888 19.4229C33.9813 18.9287 33.9626 18.3747 33.9326 17.7607C33.9027 17.1468 33.8428 16.619 33.7529 16.1772C33.6631 15.7355 33.5433 15.335 33.3936 14.9756C33.2438 14.5863 33.0641 14.2269 32.8545 13.8975C32.6449 13.568 32.3828 13.2461 32.0684 12.9316C31.7539 12.6172 31.432 12.3551 31.1025 12.1455C30.7731 11.9359 30.4137 11.7562 30.0244 11.6064C29.665 11.4567 29.2645 11.3369 28.8228 11.2471C28.381 11.1572 27.8532 11.0973 27.2393 11.0674C26.6253 11.0374 26.0713 11.0187 25.5771 11.0112C25.083 11.0037 24.0573 11 22.5 11ZM22.5 16.5928C21.6914 16.5928 20.9277 16.75 20.209 17.0645C19.4902 17.3639 18.8613 17.7832 18.3223 18.3223C17.7832 18.8613 17.3639 19.4902 17.0645 20.209C16.75 20.9277 16.5928 21.6914 16.5928 22.5C16.5928 23.3086 16.75 24.0723 17.0645 24.791C17.3639 25.5098 17.7832 26.1387 18.3223 26.6777C18.8613 27.2168 19.4902 27.6361 20.209 27.9355C20.9277 28.25 21.6914 28.4072 22.5 28.4072C23.3086 28.4072 24.0723 28.25 24.791 27.9355C25.5098 27.6361 26.1387 27.2168 26.6777 26.6777C27.2168 26.1387 27.6361 25.5098 27.9355 24.791C28.25 24.0723 28.4072 23.3086 28.4072 22.5C28.4072 21.6914 28.25 20.9277 27.9355 20.209C27.6361 19.4902 27.2168 18.8613 26.6777 18.3223C26.1387 17.7832 25.5098 17.3639 24.791 17.0645C24.0723 16.75 23.3086 16.5928 22.5 16.5928ZM22.5 26.3408C21.4368 26.3408 20.5309 25.9665 19.7822 25.2178C19.0335 24.4691 18.6592 23.5632 18.6592 22.5C18.6592 21.4368 19.0335 20.5309 19.7822 19.7822C20.5309 19.0335 21.4368 18.6592 22.5 18.6592C23.5632 18.6592 24.4691 19.0335 25.2178 19.7822C25.9665 20.5309 26.3408 21.4368 26.3408 22.5C26.3408 23.5632 25.9665 24.4691 25.2178 25.2178C24.4691 25.9665 23.5632 26.3408 22.5 26.3408ZM30.0244 16.3682C30.0244 16.7425 29.8896 17.0645 29.6201 17.334C29.3506 17.6035 29.0212 17.7383 28.6318 17.7383C28.2575 17.7383 27.9355 17.6035 27.666 17.334C27.3965 17.0645 27.2617 16.7425 27.2617 16.3682C27.2617 15.9788 27.3965 15.6494 27.666 15.3799C27.9355 15.1104 28.2575 14.9756 28.6318 14.9756C29.0212 14.9756 29.3506 15.1104 29.6201 15.3799C29.8896 15.6494 30.0244 15.9788 30.0244 16.3682Z" fill="black"/>
</svg>
