<svg width="28" height="20" viewBox="0 0 28 20" fill="none" xmlns="http://www.w3.org/2000/svg">
<path d="M26.5721 3.68125C26.4227 3.12629 26.1302 2.62029 25.7238 2.21391C25.3174 1.80752 24.8114 1.515 24.2565 1.36563C22.2127 0.8125 14.0002 0.8125 14.0002 0.8125C14.0002 0.8125 5.78772 0.8125 3.74397 1.36563C3.189 1.515 2.68301 1.80752 2.27662 2.21391C1.87024 2.62029 1.57772 3.12629 1.42834 3.68125C1.04673 5.76556 0.861542 7.88109 0.875217 10C0.861542 12.1189 1.04673 14.2344 1.42834 16.3188C1.57772 16.8737 1.87024 17.3797 2.27662 17.7861C2.68301 18.1925 3.189 18.485 3.74397 18.6344C5.78772 19.1875 14.0002 19.1875 14.0002 19.1875C14.0002 19.1875 22.2127 19.1875 24.2565 18.6344C24.8114 18.485 25.3174 18.1925 25.7238 17.7861C26.1302 17.3797 26.4227 16.8737 26.5721 16.3188C26.9537 14.2344 27.1389 12.1189 27.1252 10C27.1389 7.88109 26.9537 5.76556 26.5721 3.68125ZM11.3752 13.9375V6.0625L18.1908 10L11.3752 13.9375Z" fill="#1F1F1F"/>
</svg>
